<svg width="38" height="25" viewBox="0 0 38 25" fill="none" xmlns="http://www.w3.org/2000/svg">
<path d="M6.20459 20.9659H0.850098V1.10962H24.6715V20.9659M24.6715 20.9659L12.5884 20.9152M24.6715 20.9659L26.862 20.9659M24.6715 20.9659L24.6715 5.28774H31.3697L37.3022 14.0344V20.9709H33.2407M32.6273 7.14352H28.6925V14.0293H37.2972M12.5834 20.9202C12.5834 22.6817 11.1554 24.1096 9.394 24.1096C7.63256 24.1096 6.20462 22.6817 6.20462 20.9202C6.20462 19.1588 7.63256 17.7309 9.394 17.7309C11.1554 17.7309 12.5834 19.1588 12.5834 20.9202ZM33.2406 20.9202C33.2406 22.6817 31.8127 24.1096 30.0513 24.1096C28.2898 24.1096 26.8619 22.6817 26.8619 20.9202C26.8619 19.1588 28.2898 17.7309 30.0513 17.7309C31.8127 17.7309 33.2406 19.1588 33.2406 20.9202Z" stroke="white" stroke-miterlimit="10"/>
</svg>
