<svg width="28" height="25" viewBox="0 0 28 25" fill="none" xmlns="http://www.w3.org/2000/svg">
<path d="M1 16.3945L1.01191 15.8946C0.809159 15.8898 0.623578 16.0079 0.542113 16.1936C0.460648 16.3793 0.499437 16.5959 0.640307 16.7418L1 16.3945ZM3.96481 15.5698L3.94574 16.0694L3.94574 16.0694L3.96481 15.5698ZM7.46868 23.8168L7.31871 23.3398C7.09553 23.41 6.95085 23.6255 6.97044 23.8586C6.99002 24.0918 7.16864 24.2801 7.4004 24.3121L7.46868 23.8168ZM13.1288 4.57371L13.408 4.98852C13.546 4.89561 13.6288 4.74011 13.6288 4.57371H13.1288ZM13.1288 1V0.5C12.8526 0.5 12.6288 0.723858 12.6288 1H13.1288ZM15.0155 1H15.5155C15.5155 0.723858 15.2916 0.5 15.0155 0.5V1ZM10.4335 11.1713H9.93349C9.93349 11.1794 9.93369 11.1874 9.93407 11.1954L10.4335 11.1713ZM14.2072 4.57371L14.6907 4.44645C14.628 4.20838 14.4014 4.05134 14.1565 4.07629C13.9116 4.10124 13.7213 4.30074 13.7079 4.54656L14.2072 4.57371ZM16.0936 16.3945L15.6527 16.6303C15.6586 16.6412 15.6648 16.6519 15.6715 16.6624L16.0936 16.3945ZM26.875 18.3188L27.1252 18.7517C27.3495 18.6221 27.4376 18.3426 27.3283 18.1077L26.875 18.3188ZM20.1365 15.02L20.3719 14.5788C20.34 14.5618 20.3064 14.5483 20.2715 14.5385L20.1365 15.02ZM12.3597 14.492C12.4214 15.9047 12.4006 16.9282 12.2492 17.8434C12.099 18.7512 11.8168 19.5734 11.3312 20.5747L12.231 21.011C12.7472 19.9465 13.0662 19.0316 13.2358 18.0066C13.4041 16.989 13.4215 15.8841 13.3588 14.4483L12.3597 14.492ZM0.640307 16.7418C2.38894 18.5528 3.81223 19.5145 5.29061 19.927C6.76113 20.3374 8.22152 20.1835 9.97098 19.9125L9.81789 18.9243C8.06869 19.1952 6.80156 19.3104 5.55937 18.9638C4.32505 18.6194 3.05045 17.7982 1.35969 16.0472L0.640307 16.7418ZM9.99822 13.6743C9.67193 14.2516 9.32049 14.6121 8.95305 14.8424C8.58477 15.0733 8.16879 15.1933 7.68282 15.2419C7.19038 15.2913 6.64399 15.266 6.0189 15.2172C5.40658 15.1693 4.71206 15.0979 3.98388 15.0701L3.94574 16.0694C4.64747 16.0962 5.29684 16.1637 5.94095 16.2141C6.57229 16.2635 7.19487 16.2958 7.78248 16.237C8.37656 16.1775 8.95171 16.0235 9.4842 15.6897C10.0175 15.3554 10.4765 14.8604 10.8688 14.1664L9.99822 13.6743ZM3.98388 15.0701C3.68458 15.0587 3.38588 15.1261 3.11651 15.2108C2.84587 15.296 2.56814 15.4113 2.31464 15.5157C1.76661 15.7414 1.34794 15.9026 1.01191 15.8946L0.988094 16.8943C1.57801 16.9084 2.20899 16.6407 2.6955 16.4403C2.95927 16.3317 3.19504 16.2345 3.41676 16.1647C3.63976 16.0945 3.8123 16.0643 3.94574 16.0694L3.98388 15.0701ZM15.5978 16.0548C15.1618 19.3938 14.5118 21.351 13.3586 22.4099C12.235 23.4417 10.5013 23.7301 7.53696 23.3215L7.4004 24.3121C10.4155 24.7277 12.5588 24.5021 14.035 23.1465C15.4817 21.818 16.1545 19.5144 16.5894 16.1843L15.5978 16.0548ZM13.6288 4.57371V1H12.6288V4.57371H13.6288ZM13.1288 1.5H15.0155V0.5H13.1288V1.5ZM14.5155 1V4.57371H15.5155V1H14.5155ZM7.61865 24.2938C8.35429 24.0625 8.92573 23.4632 9.36512 22.6918C9.80759 21.915 10.1504 20.9056 10.4048 19.7439C10.9142 17.4178 11.0893 14.3873 10.9329 11.1472L9.93407 11.1954C10.0878 14.3816 9.91244 17.3178 9.42795 19.53C9.1854 20.6374 8.87034 21.54 8.49619 22.1968C8.11898 22.8591 7.71506 23.2152 7.31871 23.3398L7.61865 24.2938ZM10.9335 11.1713C10.9335 7.9589 11.8005 6.07041 13.408 4.98852L12.8496 4.15891C10.8555 5.50102 9.93349 7.78615 9.93349 11.1713H10.9335ZM21.026 16.7257C20.4332 16.6289 19.9278 16.4347 19.4543 16.067C18.9743 15.6941 18.5001 15.1218 18.0072 14.2278C17.0138 12.426 16.002 9.42868 14.6907 4.44645L13.7236 4.70098C15.0334 9.6774 16.071 12.7872 17.1315 14.7106C17.6656 15.6793 18.2196 16.3741 18.8409 16.8567C19.4687 17.3444 20.1378 17.5939 20.8648 17.7126L21.026 16.7257ZM13.7079 4.54656C13.4369 9.52977 13.9736 13.4907 15.6527 16.6303L16.5345 16.1587C14.9792 13.2504 14.4399 9.50152 14.7064 4.60087L13.7079 4.54656ZM15.6715 16.6624C17.4769 19.5073 18.9242 20.9899 20.749 21.1777C21.6493 21.2704 22.5774 21.0394 23.5949 20.6112C24.6113 20.1836 25.766 19.5372 27.1252 18.7517L26.6248 17.8859C25.2589 18.6753 24.1566 19.2899 23.207 19.6895C22.2586 20.0886 21.5119 20.2509 20.8514 20.183C19.5545 20.0495 18.3363 18.9951 16.5158 16.1265L15.6715 16.6624ZM20.2715 14.5385C20.1387 14.5013 19.9184 14.3805 19.6256 14.1577C19.3445 13.944 19.0359 13.6671 18.7318 13.3661C18.1187 12.7593 17.5641 12.0948 17.3207 11.7225L16.4837 12.2696C16.7793 12.722 17.3867 13.4418 18.0284 14.0769C18.3517 14.3969 18.6937 14.7054 19.0202 14.9537C19.3349 15.1931 19.6792 15.411 20.0015 15.5014L20.2715 14.5385ZM27.3283 18.1077C26.5817 16.5042 25.8429 15.6932 25.0622 15.323C24.3028 14.9628 23.5515 15.0698 23.1013 15.0698V16.0698C23.7293 16.0698 24.1389 15.9918 24.6337 16.2265C25.1073 16.4511 25.7163 17.0146 26.4217 18.5298L27.3283 18.1077ZM23.1013 15.0698C22.9324 15.0698 22.7373 15.0966 22.5935 15.1114C22.4325 15.128 22.2644 15.1398 22.0692 15.1287C21.6858 15.1069 21.1495 14.9938 20.3719 14.5788L19.9011 15.4611C20.7878 15.9343 21.4644 16.096 22.0126 16.1271C22.2832 16.1425 22.5105 16.1252 22.6959 16.1061C22.8985 16.0852 23.0007 16.0698 23.1013 16.0698V15.0698Z" fill="black"/>
</svg>
