<svg width="28" height="25" viewBox="0 0 28 25" fill="none" xmlns="http://www.w3.org/2000/svg">
<path d="M0.800293 16.5041L0.812199 16.0042C0.609452 15.9994 0.423871 16.1175 0.342406 16.3032C0.260941 16.489 0.29973 16.7055 0.4406 16.8514L0.800293 16.5041ZM3.76511 15.6794L3.74603 16.179L3.74603 16.179L3.76511 15.6794ZM7.26897 23.9264L7.119 23.4494C6.89583 23.5196 6.75114 23.7351 6.77073 23.9683C6.79032 24.2014 6.96894 24.3898 7.20069 24.4217L7.26897 23.9264ZM12.9291 4.68333L13.2082 5.09813C13.3463 5.00523 13.4291 4.84973 13.4291 4.68333H12.9291ZM12.9291 1.10962V0.609619C12.6529 0.609619 12.4291 0.833477 12.4291 1.10962H12.9291ZM14.8158 1.10962H15.3158C15.3158 0.833477 15.0919 0.609619 14.8158 0.609619V1.10962ZM10.2338 11.281H9.73379C9.73379 11.289 9.73398 11.297 9.73437 11.3051L10.2338 11.281ZM14.0075 4.68333L14.491 4.55607C14.4283 4.318 14.2017 4.16096 13.9568 4.18591C13.7119 4.21085 13.5216 4.41036 13.5082 4.65618L14.0075 4.68333ZM15.8939 16.5041L15.453 16.7399C15.4589 16.7508 15.4651 16.7615 15.4718 16.772L15.8939 16.5041ZM26.6753 18.4284L26.9255 18.8613C27.1498 18.7317 27.2379 18.4522 27.1286 18.2174L26.6753 18.4284ZM19.9368 15.1296L20.1722 14.6884C20.1403 14.6714 20.1066 14.6579 20.0718 14.6481L19.9368 15.1296ZM12.16 14.6016C12.2217 16.0143 12.2009 17.0378 12.0495 17.953C11.8993 18.8608 11.617 19.683 11.1315 20.6843L12.0313 21.1206C12.5475 20.0561 12.8665 19.1412 13.0361 18.1162C13.2044 17.0986 13.2218 15.9937 13.1591 14.5579L12.16 14.6016ZM0.4406 16.8514C2.18923 18.6624 3.61252 19.6241 5.0909 20.0367C6.56142 20.447 8.02182 20.2931 9.77127 20.0221L9.61819 19.0339C7.86898 19.3049 6.60185 19.4201 5.35967 19.0735C4.12534 18.729 2.85074 17.9078 1.15999 16.1568L0.4406 16.8514ZM9.79851 13.7839C9.47222 14.3612 9.12079 14.7217 8.75334 14.952C8.38507 15.1829 7.96909 15.3029 7.48311 15.3516C6.99067 15.4009 6.44429 15.3757 5.8192 15.3268C5.20687 15.2789 4.51235 15.2075 3.78418 15.1797L3.74603 16.179C4.44776 16.2058 5.09713 16.2734 5.74124 16.3237C6.37258 16.3731 6.99516 16.4054 7.58277 16.3466C8.17685 16.2871 8.75201 16.1331 9.2845 15.7993C9.81782 15.465 10.2768 14.97 10.6691 14.276L9.79851 13.7839ZM3.78418 15.1797C3.48487 15.1683 3.18618 15.2357 2.91681 15.3205C2.64616 15.4057 2.36843 15.5209 2.11494 15.6253C1.5669 15.851 1.14823 16.0122 0.812199 16.0042L0.788387 17.0039C1.3783 17.018 2.00928 16.7503 2.49579 16.5499C2.75957 16.4413 2.99534 16.3441 3.21705 16.2743C3.44005 16.2041 3.61259 16.1739 3.74603 16.179L3.78418 15.1797ZM15.3981 16.1644C14.9621 19.5035 14.3121 21.4606 13.1589 22.5195C12.0353 23.5513 10.3016 23.8397 7.33726 23.4311L7.20069 24.4217C10.2157 24.8374 12.359 24.6117 13.8353 23.2561C15.282 21.9277 15.9548 19.624 16.3897 16.2939L15.3981 16.1644ZM13.4291 4.68333V1.10962H12.4291V4.68333H13.4291ZM12.9291 1.60962H14.8158V0.609619H12.9291V1.60962ZM14.3158 1.10962V4.68333H15.3158V1.10962H14.3158ZM7.41895 24.4034C8.15459 24.1721 8.72603 23.5728 9.16542 22.8014C9.60788 22.0246 9.95067 21.0152 10.2051 19.8535C10.7145 17.5275 10.8896 14.4969 10.7332 11.2569L9.73437 11.3051C9.88812 14.4912 9.71273 17.4275 9.22824 19.6396C8.98569 20.747 8.67063 21.6496 8.29649 22.3065C7.91927 22.9687 7.51535 23.3248 7.119 23.4494L7.41895 24.4034ZM10.7338 11.281C10.7338 8.06852 11.6008 6.18003 13.2082 5.09813L12.6499 4.26853C10.6558 5.61064 9.73379 7.89577 9.73379 11.281H10.7338ZM20.8263 16.8353C20.2335 16.7385 19.728 16.5443 19.2546 16.1766C18.7746 15.8037 18.3004 15.2314 17.8075 14.3374C16.8141 12.5357 15.8023 9.5383 14.491 4.55607L13.5239 4.8106C14.8337 9.78702 15.8713 12.8968 16.9318 14.8203C17.4659 15.7889 18.0198 16.4838 18.6412 16.9663C19.269 17.454 19.938 17.7035 20.6651 17.8222L20.8263 16.8353ZM13.5082 4.65618C13.2372 9.63939 13.7739 13.6003 15.453 16.7399L16.3348 16.2683C14.7795 13.36 14.2402 9.61114 14.5067 4.71048L13.5082 4.65618ZM15.4718 16.772C17.2772 19.6169 18.7245 21.0996 20.5493 21.2873C21.4496 21.38 22.3777 21.149 23.3952 20.7208C24.4116 20.2932 25.5663 19.6468 26.9255 18.8613L26.4251 17.9955C25.0592 18.7849 23.9569 19.3996 23.0073 19.7991C22.0589 20.1982 21.3122 20.3605 20.6517 20.2926C19.3548 20.1591 18.1366 19.1048 16.3161 16.2362L15.4718 16.772ZM20.0718 14.6481C19.9389 14.6109 19.7187 14.4901 19.4258 14.2674C19.1448 14.0536 18.8362 13.7768 18.5321 13.4758C17.919 12.8689 17.3644 12.2044 17.121 11.8321L16.2839 12.3792C16.5796 12.8316 17.187 13.5514 17.8287 14.1865C18.1519 14.5065 18.494 14.815 18.8205 15.0633C19.1352 15.3027 19.4795 15.5206 19.8018 15.611L20.0718 14.6481ZM27.1286 18.2174C26.382 16.6138 25.6432 15.8028 24.8625 15.4326C24.103 15.0724 23.3518 15.1794 22.9016 15.1794V16.1794C23.5296 16.1794 23.9392 16.1015 24.434 16.3361C24.9076 16.5607 25.5166 17.1242 26.222 18.6394L27.1286 18.2174ZM22.9016 15.1794C22.7327 15.1794 22.5376 15.2062 22.3938 15.221C22.2328 15.2376 22.0647 15.2494 21.8695 15.2383C21.4861 15.2166 20.9498 15.1034 20.1722 14.6884L19.7014 15.5707C20.5881 16.0439 21.2647 16.2056 21.8128 16.2367C22.0835 16.2521 22.3108 16.2348 22.4962 16.2157C22.6988 16.1949 22.801 16.1794 22.9016 16.1794V15.1794Z" fill="white"/>
</svg>
