<svg width="39" height="25" viewBox="0 0 39 25" fill="none" xmlns="http://www.w3.org/2000/svg">
<path d="M6.4043 20.8562H1.0498V1H24.8712V20.8562M24.8712 20.8562L12.7881 20.8055M24.8712 20.8562L27.0617 20.8562M24.8712 20.8562L24.8712 5.17812H31.5694L37.5019 13.9248V20.8613H33.4404M32.827 7.0339H28.8922V13.9197H37.4969M12.7831 20.8106C12.7831 22.5721 11.3551 24 9.5937 24C7.83226 24 6.40433 22.5721 6.40433 20.8106C6.40433 19.0492 7.83226 17.6213 9.5937 17.6213C11.3551 17.6213 12.7831 19.0492 12.7831 20.8106ZM33.4403 20.8106C33.4403 22.5721 32.0124 24 30.251 24C28.4895 24 27.0616 22.5721 27.0616 20.8106C27.0616 19.0492 28.4895 17.6213 30.251 17.6213C32.0124 17.6213 33.4403 19.0492 33.4403 20.8106Z" stroke="black" stroke-miterlimit="10"/>
</svg>
