<svg width="39" height="25" viewBox="0 0 39 25" fill="none" xmlns="http://www.w3.org/2000/svg">
<path d="M13.8189 21.0098C13.8189 22.7218 12.431 24.1096 10.719 24.1096C9.00701 24.1096 7.61916 22.7218 7.61916 21.0098C7.61916 19.2978 9.00701 17.9099 10.719 17.9099C12.431 17.9099 13.8189 19.2978 13.8189 21.0098ZM13.8189 21.0098H29.6678M29.6678 21.0098C29.6678 22.7218 31.0557 24.1096 32.7677 24.1096C34.4797 24.1096 35.8675 22.7218 35.8675 21.0098C35.8675 19.2978 34.4797 17.9099 32.7677 17.9099C31.0557 17.9099 29.6678 19.2978 29.6678 21.0098ZM7.7126 21.059H4.08543C4.42548 19.7481 4.98729 18.0823 5.96801 16.2983C6.69246 14.9776 7.47604 13.9032 8.18077 13.0556C11.8966 13.0556 15.6125 13.0556 19.3284 13.0556V18.447H22.8767C24.8332 18.447 26.7651 17.8014 28.2386 16.5102C28.2386 16.5102 28.5984 16.1998 28.9039 15.8499C31.2941 13.1394 29.993 5.84067 29.8205 4.91417C30.3528 4.53962 30.89 4.16508 31.4222 3.79054C31.9939 4.8846 32.5606 6.15115 33.0535 7.58526C34.0588 10.4978 34.4334 13.1443 34.5467 15.2191C35.1479 15.9238 35.8773 16.9242 36.4884 18.245C36.9763 19.2996 37.2621 20.2655 37.4297 21.0541C36.9714 21.0541 36.5131 21.0541 36.0547 21.0541M8.18591 13.0556H4.53903V9.28556H15.5634C17.6431 9.28556 19.3335 10.971 19.3335 13.0556M1.00049 3.57372H10.7189M26.8539 6.99384L34.8179 1.42004M1.00049 1.10962H10.7189V9.28552H1.00049V1.10962Z" stroke="white" stroke-miterlimit="10"/>
</svg>
