<svg width="39" height="25" viewBox="0 0 39 25" fill="none" xmlns="http://www.w3.org/2000/svg">
<path d="M14.0186 20.9002C14.0186 22.6122 12.6307 24 10.9187 24C9.20672 24 7.81887 22.6122 7.81887 20.9002C7.81887 19.1882 9.20672 17.8003 10.9187 17.8003C12.6307 17.8003 14.0186 19.1882 14.0186 20.9002ZM14.0186 20.9002H29.8676M29.8676 20.9002C29.8676 22.6122 31.2554 24 32.9674 24C34.6794 24 36.0672 22.6122 36.0672 20.9002C36.0672 19.1882 34.6794 17.8003 32.9674 17.8003C31.2554 17.8003 29.8676 19.1882 29.8676 20.9002ZM7.9123 20.9494H4.28514C4.62519 19.6385 5.187 17.9727 6.16772 16.1887C6.89216 14.868 7.67575 13.7936 8.38048 12.946C12.0964 12.946 15.8122 12.946 19.5281 12.946V18.3374H23.0764C25.0329 18.3374 26.9648 17.6918 28.4383 16.4006C28.4383 16.4006 28.7981 16.0902 29.1036 15.7402C31.4938 13.0297 30.1927 5.73105 30.0203 4.80455C30.5525 4.43001 31.0897 4.05546 31.6219 3.68092C32.1936 4.77498 32.7603 6.04153 33.2532 7.47564C34.2585 10.3882 34.6331 13.0347 34.7464 15.1094C35.3477 15.8142 36.077 16.8146 36.6881 18.1354C37.176 19.19 37.4618 20.1559 37.6294 20.9444C37.1711 20.9444 36.7128 20.9444 36.2544 20.9444M8.38561 12.946H4.73874V9.17594H15.7631C17.8428 9.17594 19.5332 10.8614 19.5332 12.946M1.2002 3.46411H10.9186M27.0536 6.88423L35.0176 1.31042M1.2002 1H10.9186V9.1759H1.2002V1Z" stroke="black" stroke-miterlimit="10"/>
</svg>
