<svg width="52" height="40" viewBox="0 0 52 40" fill="none" xmlns="http://www.w3.org/2000/svg">
<path d="M51.8514 19.334L46.28 6.57829C46.1378 6.24892 45.9 5.96789 45.5962 5.77023C45.2924 5.57257 44.936 5.46701 44.5714 5.46672H39V1.82224C39 1.33895 38.8043 0.875459 38.4561 0.533722C38.1078 0.191986 37.6354 0 37.1429 0H1.85714C1.3646 0 0.892226 0.191986 0.543944 0.533722C0.195663 0.875459 0 1.33895 0 1.82224V32.8003C0 33.2836 0.195663 33.7471 0.543944 34.0888C0.892226 34.4306 1.3646 34.6226 1.85714 34.6226H5.83143C6.2591 36.1667 7.19272 37.5298 8.48825 38.5016C9.78378 39.4735 11.3692 40 13 40C14.6308 40 16.2162 39.4735 17.5117 38.5016C18.8073 37.5298 19.7409 36.1667 20.1686 34.6226H31.8314C32.2591 36.1667 33.1927 37.5298 34.4883 38.5016C35.7838 39.4735 37.3692 40 39 40C40.6308 40 42.2162 39.4735 43.5117 38.5016C44.8073 37.5298 45.7409 36.1667 46.1686 34.6226H50.1429C50.6354 34.6226 51.1078 34.4306 51.4561 34.0888C51.8043 33.7471 52 33.2836 52 32.8003V20.0446C51.9995 19.8004 51.949 19.5587 51.8514 19.334ZM39 9.1112H43.3457L47.32 18.2224H39V9.1112ZM13 36.4448C12.2654 36.4448 11.5473 36.2311 10.9365 35.8306C10.3256 35.4301 9.84957 34.861 9.56845 34.195C9.28732 33.5291 9.21377 32.7963 9.35708 32.0893C9.5004 31.3824 9.85415 30.733 10.3736 30.2233C10.8931 29.7136 11.5549 29.3665 12.2754 29.2259C12.9959 29.0853 13.7427 29.1574 14.4214 29.4333C15.1001 29.7091 15.6802 30.1762 16.0883 30.7756C16.4964 31.3749 16.7143 32.0795 16.7143 32.8003C16.7143 33.7669 16.323 34.6939 15.6264 35.3774C14.9298 36.0608 13.9851 36.4448 13 36.4448ZM39 36.4448C38.2654 36.4448 37.5473 36.2311 36.9365 35.8306C36.3256 35.4301 35.8496 34.861 35.5684 34.195C35.2873 33.5291 35.2138 32.7963 35.3571 32.0893C35.5004 31.3824 35.8542 30.733 36.3736 30.2233C36.8931 29.7136 37.5549 29.3665 38.2754 29.2259C38.9959 29.0853 39.7427 29.1574 40.4214 29.4333C41.1001 29.7091 41.6802 30.1762 42.0883 30.7756C42.4964 31.3749 42.7143 32.0795 42.7143 32.8003C42.7143 33.7669 42.323 34.6939 41.6264 35.3774C40.9298 36.0608 39.9851 36.4448 39 36.4448Z" fill="black"/>
</svg>
