<svg width="25" height="25" viewBox="0 0 25 25" fill="none" xmlns="http://www.w3.org/2000/svg">
<path d="M22.6066 11.9717H2.77722V24.1096H22.6066V11.9717Z" stroke="white" stroke-miterlimit="10"/>
<path d="M15.8785 11.9717H9.50532V24.1096H15.8785V11.9717Z" stroke="white" stroke-miterlimit="10"/>
<path d="M24.1986 8.09815H1.18018V11.9717H24.1986V8.09815Z" stroke="white" stroke-miterlimit="10"/>
<path d="M7.15785 2.05955C6.80801 3.09386 8.26824 4.86841 12.6945 7.74825C12.3852 3.84931 10.7678 1.25847 9.04396 1.1165C8.32907 1.05566 7.38094 1.40043 7.15785 2.05955Z" stroke="white" stroke-miterlimit="10"/>
<path d="M18.226 2.05955C18.5758 3.09386 17.1156 4.86841 12.6894 7.74825C12.9987 3.84931 14.616 1.25847 16.3399 1.1165C17.0548 1.05566 18.0029 1.40043 18.226 2.05955Z" stroke="white" stroke-miterlimit="10"/>
</svg>
