<svg width="58" height="48" viewBox="0 0 58 48" fill="none" xmlns="http://www.w3.org/2000/svg">
<path d="M26.3886 16.1025C20.8249 11.9785 15.2482 7.84929 9.68456 3.72534L16.5699 0.802675L37.8673 11.2301M21.7661 3.34441L26.5896 1.29698M29.4975 7.12397L33.2256 5.54151M51.0397 8.3003L45.4614 10.6681L46.5867 13.3192L53.96 10.1894M30.6202 26.0716C29.7127 32.9423 28.8183 39.8184 27.9108 46.6892L34.7961 43.7665L42.0897 21.203M36.5866 38.2592L41.41 36.2117M39.2385 30.0722L42.9665 28.4897M1.15738 18.9038L5.47455 17.0713L12.4868 20.7433C13.3243 21.1808 14.3076 21.2197 15.1821 20.8485L45.4299 8.00905C47.3998 7.17289 49.6589 7.37637 51.4498 8.5499L56.5003 11.8488C57.7789 12.6857 57.6094 14.6153 56.201 15.2131L18.8009 31.0885C17.0796 31.8192 15.0888 31.4801 13.7013 30.2331C9.52305 26.4554 5.34482 22.6776 1.16658 18.8999L1.15738 18.9038ZM22.7242 22.0577C22.8407 22.3322 22.7126 22.6492 22.4381 22.7658C22.1636 22.8823 21.8465 22.7542 21.73 22.4797C21.6135 22.2052 21.7416 21.8881 22.0161 21.7716C22.2906 21.6551 22.6076 21.7832 22.7242 22.0577ZM28.689 19.5258C28.8056 19.8003 28.6775 20.1173 28.403 20.2338C28.1284 20.3504 27.8114 20.2223 27.6949 19.9477C27.5784 19.6732 27.7064 19.3562 27.981 19.2397C28.2555 19.1232 28.5725 19.2512 28.689 19.5258ZM34.6539 16.9938C34.7704 17.2683 34.6424 17.5854 34.3678 17.7019C34.0933 17.8184 33.7763 17.6903 33.6598 17.4158C33.5432 17.1413 33.6713 16.8243 33.9458 16.7077C34.2204 16.5912 34.5374 16.7193 34.6539 16.9938ZM40.72 14.4189C40.8366 14.6934 40.7085 15.0104 40.434 15.127C40.1594 15.2435 39.8424 15.1154 39.7259 14.8409C39.6094 14.5664 39.7374 14.2494 40.012 14.1328C40.2865 14.0163 40.6035 14.1444 40.72 14.4189Z" stroke="white" stroke-miterlimit="10"/>
</svg>
