<svg width="24" height="24" viewBox="0 0 24 24" fill="none" xmlns="http://www.w3.org/2000/svg">
<path d="M12.4296 0.109619V2.6804M12.4296 8.22762V17.7096M5.29016 23.1047C4.14421 19.7378 2.99826 16.371 1.84724 12.999L12.3839 8.22762L23.0068 12.999C21.8304 16.3659 20.6591 19.7328 19.4827 23.1047M5.33573 11.4424V5.56557H19.5283V11.417M7.53133 5.5656V2.68044H17.3328V5.56053M1.00049 21.7762C1.44163 21.8016 2.09572 21.8776 2.85631 22.1058C4.29128 22.5368 4.50425 23.0489 5.33075 23.1047C6.63389 23.196 6.83671 21.9892 8.30718 21.7255C9.95005 21.4314 10.305 22.8258 12.2724 22.8613C14.3767 22.9019 14.8432 21.33 16.5824 21.6849C18.0224 21.979 18.1796 23.1554 19.5182 23.1047C20.2535 23.0794 20.4715 22.7143 22.018 22.2275C22.7888 21.9841 23.4327 21.8523 23.8536 21.7813" stroke="white" stroke-miterlimit="10"/>
</svg>
