<svg width="58" height="48" viewBox="0 0 58 48" fill="none" xmlns="http://www.w3.org/2000/svg">
<path d="M25.5883 15.9929C20.0247 11.8689 14.4479 7.73967 8.88426 3.61573L15.7696 0.693056L37.067 11.1205M20.9658 3.23479L25.7893 1.18736M28.6972 7.01435L32.4253 5.43189M50.2394 8.19068L44.6611 10.5585L45.7864 13.2096L53.1597 10.0798M29.8199 25.9619C28.9124 32.8327 28.018 39.7088 27.1105 46.5796L33.9959 43.6569L41.2894 21.0934M35.7863 38.1495L40.6097 36.1021M38.4382 29.9625L42.1662 28.3801M0.357086 18.7942L4.67425 16.9616L11.6865 20.6337C12.524 21.0712 13.5074 21.1101 14.3818 20.7389L44.6296 7.89943C46.5995 7.06327 48.8586 7.26675 50.6495 8.44028L55.7 11.7391C56.9786 12.5761 56.8091 14.5057 55.4007 15.1035L18.0006 30.9789C16.2793 31.7096 14.2885 31.3705 12.901 30.1235C8.72276 26.3458 4.54452 22.568 0.366291 18.7903L0.357086 18.7942ZM21.9239 21.9481C22.0404 22.2226 21.9123 22.5396 21.6378 22.6561C21.3633 22.7727 21.0463 22.6446 20.9297 22.3701C20.8132 22.0955 20.9413 21.7785 21.2158 21.662C21.4903 21.5455 21.8073 21.6736 21.9239 21.9481ZM27.8887 19.4161C28.0053 19.6907 27.8772 20.0077 27.6027 20.1242C27.3281 20.2407 27.0111 20.1127 26.8946 19.8381C26.7781 19.5636 26.9061 19.2466 27.1807 19.1301C27.4552 19.0135 27.7722 19.1416 27.8887 19.4161ZM33.8536 16.8842C33.9701 17.1587 33.8421 17.4757 33.5675 17.5923C33.293 17.7088 32.976 17.5807 32.8595 17.3062C32.7429 17.0317 32.871 16.7147 33.1455 16.5981C33.4201 16.4816 33.7371 16.6097 33.8536 16.8842ZM39.9197 14.3093C40.0363 14.5838 39.9082 14.9008 39.6337 15.0174C39.3591 15.1339 39.0421 15.0058 38.9256 14.7313C38.8091 14.4567 38.9371 14.1397 39.2117 14.0232C39.4862 13.9067 39.8032 14.0348 39.9197 14.3093Z" stroke="black" stroke-miterlimit="10"/>
</svg>
