<svg width="24" height="24" viewBox="0 0 24 24" fill="none" xmlns="http://www.w3.org/2000/svg">
<path d="M11.6293 0V2.57078M11.6293 8.118V17.6M4.48987 22.9951C3.34392 19.6282 2.19796 16.2614 1.04694 12.8894L11.5836 8.118L22.2065 12.8894C21.0301 16.2563 19.8588 19.6231 18.6824 22.9951M4.53544 11.3327V5.45595H18.728V11.3074M6.73104 5.45598V2.57082H16.5325V5.45091M0.200195 21.6666C0.641336 21.6919 1.29543 21.768 2.05601 21.9962C3.49099 22.4272 3.70395 22.9393 4.53046 22.9951C5.8336 23.0864 6.03642 21.8796 7.50689 21.6159C9.14975 21.3218 9.5047 22.7162 11.4721 22.7517C13.5764 22.7923 14.0429 21.2204 15.7821 21.5753C17.2221 21.8694 17.3793 23.0458 18.7179 22.9951C19.4532 22.9697 19.6712 22.6047 21.2177 22.1179C21.9885 21.8745 22.6324 21.7427 23.0533 21.6717" stroke="black" stroke-miterlimit="10"/>
</svg>
