<svg width="135" height="206" viewBox="0 0 135 206" fill="none" xmlns="http://www.w3.org/2000/svg">
<path d="M1 1V0H0V1H1ZM134 1H135V0H134V1ZM1 184H0V185H1V184ZM19 184H20V183H19V184ZM19 203H18V205.261L19.6727 203.74L19 203ZM39.9 184V183H39.5134L39.2273 183.26L39.9 184ZM134 184V185H135V184H134ZM1 2H134V0H1V2ZM2 184V1H0V184H2ZM19 183H1V185H19V183ZM20 203V184H18V203H20ZM39.2273 183.26L18.3273 202.26L19.6727 203.74L40.5727 184.74L39.2273 183.26ZM134 183H39.9V185H134V183ZM133 1V184H135V1H133Z" fill="black"/>
</svg>
