<svg width="26" height="25" viewBox="0 0 26 25" fill="none" xmlns="http://www.w3.org/2000/svg">
<path d="M2.83138 9.9616V24H23.0014V9.9616M7.78133 14.7949H18.0565V24H7.78133V14.7949ZM0.959961 1H6.93437V8.54157C6.93437 9.42912 6.2142 10.1493 5.32666 10.1493H2.56767C1.68013 10.1493 0.959961 9.42912 0.959961 8.54157V1ZM6.92933 1H12.9038V8.54157C12.9038 9.42912 12.1836 10.1493 11.2961 10.1493H8.53707C7.64953 10.1493 6.92933 9.42912 6.92933 8.54157V1ZM12.9341 1H18.9085V8.54157C18.9085 9.42912 18.1883 10.1493 17.3008 10.1493H14.5418C13.6543 10.1493 12.9341 9.42912 12.9341 8.54157V1ZM18.9035 1H24.8779V8.54157C24.8779 9.42912 24.1577 10.1493 23.2702 10.1493H20.5112C19.6236 10.1493 18.9035 9.42912 18.9035 8.54157V1Z" stroke="black" stroke-miterlimit="10"/>
</svg>
