<svg width="26" height="25" viewBox="0 0 26 25" fill="none" xmlns="http://www.w3.org/2000/svg">
<path d="M2.63167 10.0712V24.1096H22.8017V10.0712M7.58163 14.9045H17.8568V24.1096H7.58163V14.9045ZM0.760254 1.10962H6.73467V8.65119C6.73467 9.53874 6.0145 10.2589 5.12695 10.2589H2.36796C1.48042 10.2589 0.760254 9.53874 0.760254 8.65119V1.10962ZM6.72962 1.10962H12.7041V8.65119C12.7041 9.53874 11.9839 10.2589 11.0964 10.2589H8.33736C7.44982 10.2589 6.72962 9.53874 6.72962 8.65119V1.10962ZM12.7344 1.10962H18.7088V8.65119C18.7088 9.53874 17.9886 10.2589 17.1011 10.2589H14.3421C13.4546 10.2589 12.7344 9.53874 12.7344 8.65119V1.10962ZM18.7038 1.10962H24.6782V8.65119C24.6782 9.53874 23.958 10.2589 23.0705 10.2589H20.3115C19.4239 10.2589 18.7038 9.53874 18.7038 8.65119V1.10962Z" stroke="white" stroke-miterlimit="10"/>
</svg>
