<svg id="Capa_1" data-name="Capa 1" xmlns="http://www.w3.org/2000/svg" viewBox="0 0 437.7 51.81"><path d="M44.78,25.85v1.8c0,12.42-8.76,22-21.42,22S.5,38.69.5,26.15A23.55,23.55,0,0,1,42.38,11.21l-4,3.78A18.08,18.08,0,0,0,24.2,7.61,18.11,18.11,0,0,0,6.14,26c0,9.48,7.8,18.48,17.58,18.48,7,0,14.58-6.06,14.82-13.44H26.84V25.85Z"/><path d="M23.36,50.11C10.7,50.11,0,39.13,0,26.15A24.05,24.05,0,0,1,42.77,10.9l.28.35-4.7,4.49L38,15.28A17.46,17.46,0,0,0,24.2,8.11,17.52,17.52,0,0,0,6.64,26c0,9.57,8,18,17.08,18C30,44,37.44,38.55,38,31.51H26.34V25.35H45.28v2.3C45.28,40.66,36.06,50.11,23.36,50.11ZM24,3A23.1,23.1,0,0,0,1,26.15c0,12.44,10.24,23,22.36,23s20.92-9,20.92-21.46v-1.3H27.34v4.16H39.06L39,31C38.83,37.6,32.23,45,23.72,45,14.09,45,5.64,36.08,5.64,26A18.51,18.51,0,0,1,24.2,7.11a18.49,18.49,0,0,1,14.28,7.13l3.22-3.08A23.2,23.2,0,0,0,24,3Z"/><path d="M68,43.49H81.74v5.16H62.36V3.41H68Z"/><path d="M82.24,49.15H61.86V2.91H68.5V43H82.24Zm-19.38-1H81.24V44H67.5V3.91H62.86Z"/><path d="M141.68,26a23.7,23.7,0,0,1-47.4,0,23.7,23.7,0,0,1,47.4,0ZM136,26c0-10-7.44-18.3-18.06-18.3S99.92,16.07,99.92,26A18.06,18.06,0,1,0,136,26Z"/><path d="M118,50.11A23.89,23.89,0,0,1,93.78,26a24.2,24.2,0,0,1,48.4,0A23.89,23.89,0,0,1,118,50.11ZM118,3A23.17,23.17,0,0,0,94.78,26a23.2,23.2,0,0,0,46.4,0A23.17,23.17,0,0,0,118,3Zm0,41.88A18.71,18.71,0,0,1,99.42,26c0-10.72,8-18.8,18.56-18.8s18.56,8.08,18.56,18.8A18.71,18.71,0,0,1,118,44.83Zm0-36.6c-10,0-17.56,7.65-17.56,17.8a17.56,17.56,0,1,0,35.12,0C135.54,15.88,128,8.23,118,8.23Z"/><path d="M172.88,35.81,185.66,2.45l12.78,33.36L211.1,3.41h6.12l-18.78,47L185.66,17.27,172.88,50.45l-18.78-47h6.12Z"/><path d="M198.43,51.81,185.66,18.66,172.89,51.81,153.36,2.91h7.2l12.31,31.51L185.66,1.05l12.78,33.37L210.75,2.91H218ZM185.66,15.88l12.79,33.2,18-45.17h-5l-13,33.28L185.66,3.85,172.88,37.19l-13-33.28h-5l18,45.17Z"/><path d="M282.2,12a7.75,7.75,0,0,0-7.26-4.26c-3.6,0-7.56,2.46-7.56,6.42,0,3.54,3.48,5.4,6.3,6.48l3.24,1.26c6.42,2.52,11.22,6.06,11.22,13.62,0,8.22-6.36,14.1-14.46,14.1-7.32,0-13-5.4-14-12.66l5.7-1.2a8.47,8.47,0,0,0,8.76,8.58c4.86,0,8.34-4.08,8.34-8.82s-3.9-7-7.8-8.58l-3.12-1.32c-5.16-2.22-9.84-5.16-9.84-11.46,0-7.32,6.48-11.7,13.32-11.7A12.91,12.91,0,0,1,286.7,9.29Z"/><path d="M273.68,50.11A14.68,14.68,0,0,1,259.2,37l-.06-.46,6.77-1.42v.62a7.79,7.79,0,0,0,2.22,5.64,8.4,8.4,0,0,0,6,2.44A8,8,0,0,0,282,35.51c0-4.62-3.87-6.62-7.5-8.12l-3.12-1.32c-5.27-2.27-10.14-5.28-10.14-11.92,0-7.93,7.12-12.2,13.82-12.2A13.37,13.37,0,0,1,287.13,9l.24.43L282,12.67l-.25-.43c-1.68-2.81-3.72-4-6.83-4-3.4,0-7.06,2.26-7.06,5.92,0,2.5,1.95,4.47,6,6l3.24,1.26c5.7,2.24,11.54,5.67,11.54,14.09S282.21,50.11,273.68,50.11ZM260.26,37.34c1.12,6.95,6.58,11.77,13.42,11.77,7.95,0,14-5.85,14-13.6s-5.52-11-10.91-13.16l-3.23-1.26c-1.64-.62-6.62-2.53-6.62-6.94s4.18-6.92,8.06-6.92a8.09,8.09,0,0,1,7.42,4.08L286,9.11a12.37,12.37,0,0,0-11-6.16c-6.22,0-12.82,3.92-12.82,11.2,0,6.06,4.58,8.87,9.53,11l3.12,1.32c3.92,1.62,8.11,3.8,8.11,9a9,9,0,0,1-8.84,9.32,9.4,9.4,0,0,1-6.75-2.74,8.76,8.76,0,0,1-2.5-5.73Z"/><path d="M331.16,3.41h7.38L318.2,23.75l20.7,24.9h-7.62l-17-21.06L312,29.75v18.9h-5.64V3.41H312V23Z"/><path d="M340,49.15H331L314.19,28.32,312.46,30V49.15h-6.64V2.91h6.64V21.8L331,2.91h8.79L318.87,23.78Zm-8.45-1h6.32L317.52,23.72,337.33,3.91h-6L311.46,24.25V3.91h-4.64V48.15h4.64V29.53l2.83-2.68Z"/><path d="M359.78,48.65h-5.64V3.41h5.64Z"/><path d="M360.28,49.15h-6.64V2.91h6.64Zm-5.64-1h4.64V3.91h-4.64Z"/><path d="M379.7,1.25l33.95,35.58V3.41h5.64v47.1l-34-35.58V48.65H379.7Z"/><path d="M419.79,51.75l-34-35.57v33H379.2V0l33.95,35.58V2.91h6.64Zm-35-38.07,34,35.58V3.91h-4.64V38.07L380.2,2.5V48.15h4.64Z"/><path d="M433.71,42.15a4,4,0,0,0-4,4,4,4,0,1,0,8,0A4,4,0,0,0,433.71,42.15Z"/></svg>