<svg id="Capa_1" data-name="Capa 1" xmlns="http://www.w3.org/2000/svg" viewBox="0 0 58.72 48.16"><path d="M44.78,23.9v1.8c0,12.42-8.76,22-21.42,22S.5,36.74.5,24.2A23.55,23.55,0,0,1,42.38,9.26l-4,3.78A18.08,18.08,0,0,0,24.2,5.66,18.11,18.11,0,0,0,6.14,24c0,9.48,7.8,18.48,17.58,18.48,7,0,14.58-6.06,14.82-13.44H26.84V23.9Z"/><path d="M23.36,48.16C10.7,48.16,0,37.19,0,24.2A24.05,24.05,0,0,1,42.77,9l.28.36-4.7,4.49L38,13.33A17.46,17.46,0,0,0,24.2,6.16,17.52,17.52,0,0,0,6.64,24c0,9.58,8,18,17.08,18C30,42,37.44,36.6,38,29.56H26.34V23.4H45.28v2.3C45.28,38.71,36.06,48.16,23.36,48.16ZM24,1A23.11,23.11,0,0,0,1,24.2c0,12.44,10.24,23,22.36,23s20.92-9,20.92-21.46V24.4H27.34v4.16H39.06l0,.51C38.83,35.65,32.23,43,23.72,43,14.09,43,5.64,34.13,5.64,24A18.51,18.51,0,0,1,24.2,5.16a18.49,18.49,0,0,1,14.28,7.13L41.7,9.22A23.18,23.18,0,0,0,24,1Z"/><path d="M58.22,44.18a3.48,3.48,0,1,1-7,0,3.48,3.48,0,1,1,7,0Z"/><path d="M54.74,48.16a4,4,0,0,1-4-4,4,4,0,1,1,4,4Zm0-7a3,3,0,1,0,3,3A3,3,0,0,0,54.74,41.2Z"/></svg>