<svg id="Capa_1" data-name="Capa 1" xmlns="http://www.w3.org/2000/svg" viewBox="0 0 278.99 126.81"><path d="M26.34,30.46H38c-.57,7-8,12.44-14.29,12.44-9.1,0-17.08-8.41-17.08-18A17.52,17.52,0,0,1,24.2,7.06,17.46,17.46,0,0,1,38,14.23l.34.46,4.7-4.49-.28-.35A24.05,24.05,0,0,0,0,25.1c0,13,10.7,24,23.36,24S45.28,39.61,45.28,26.6V24.3H26.34Z"/><polygon points="68.5 1.86 61.86 1.86 61.86 48.1 82.24 48.1 82.24 41.94 68.5 41.94 68.5 1.86"/><path d="M118,.9A24.16,24.16,0,0,0,93.78,25a24.2,24.2,0,0,0,48.4,0A24.17,24.17,0,0,0,118,.9Zm0,41.88A17.71,17.71,0,0,1,100.42,25c0-10.15,7.55-17.8,17.56-17.8s17.56,7.65,17.56,17.8A17.71,17.71,0,0,1,118,42.78Z"/><polygon points="198.44 33.37 185.66 0 172.87 33.37 160.56 1.86 153.36 1.86 172.89 50.77 185.66 17.61 198.43 50.77 217.96 1.86 210.75 1.86 198.44 33.37"/><path d="M118.4,96.48l-3.24-1.26c-4-1.54-6-3.51-6-6,0-3.65,3.66-5.92,7.06-5.92,3.11,0,5.15,1.2,6.83,4l.25.43,5.35-3.21-.24-.42A13.36,13.36,0,0,0,116.36,77c-6.7,0-13.82,4.28-13.82,12.2,0,6.64,4.87,9.66,10.14,11.92l3.12,1.33c3.63,1.5,7.49,3.49,7.49,8.11a8,8,0,0,1-7.83,8.32,8.39,8.39,0,0,1-6-2.43,7.81,7.81,0,0,1-2.22-5.64v-.63l-6.77,1.43.06.46A14.67,14.67,0,0,0,115,125.16c8.52,0,15-6.27,15-14.6S124.1,98.72,118.4,96.48Z"/><polygon points="181.04 77.96 172.25 77.96 153.76 96.86 153.76 77.96 147.12 77.96 147.12 124.2 153.76 124.2 153.76 105.02 155.49 103.38 172.34 124.2 181.26 124.2 160.17 98.83 181.04 77.96"/><rect x="194.94" y="77.96" width="6.64" height="46.24"/><polygon points="254.45 110.64 220.5 75.06 220.5 124.2 227.13 124.2 227.13 91.23 261.09 126.81 261.09 77.96 254.45 77.96 254.45 110.64"/><path d="M275,117.2a4,4,0,0,0-4,4,4,4,0,1,0,7.95,0A4,4,0,0,0,275,117.2Z"/></svg>