<?xml version="1.0" encoding="UTF-8"?><svg id="a" xmlns="http://www.w3.org/2000/svg" viewBox="0 0 201 121"><defs><style>.c{fill:#fff;}.d{fill:#2a6fc8;stroke:#2a6fc8;stroke-miterlimit:10;}</style></defs><rect id="b" class="d" x=".5" y=".5" width="200" height="120" rx="8" ry="8"/><g><path class="c" d="M34.56,41.85c.61-1.14,1.08-2.96,2.76-2.7,11.84-.16,23.69,.04,35.54-.08,1.78,.06,3.63-.15,5.34,.43,1.92,3.25,3.2,6.82,4.98,10.15,1.74-3.31,2.83-6.94,4.74-10.17,1.43-.49,2.98-.36,4.47-.41,12.71,.07,25.41,0,38.12,.04,5.06,.05,10.14-.27,15.18,.41,1.71,2.12,3.51,4.16,5.36,6.17,2.97-2.28,4.88-6.95,9.2-6.58,7.74,.1,15.49-.34,23.2,.4-6.35,7.07-12.88,13.97-19.14,21.11,6.41,7.07,12.89,14.08,19.24,21.22-8.88,.13-17.76,.06-26.65,.05-1.93-2.34-4.08-4.48-6.34-6.48-2.04,2.15-3.85,4.59-6.28,6.32-2.71,.37-5.45,.15-8.17,.19-25.45-.02-50.89-.02-76.35,0-2.9-.05-5.84,.22-8.71-.28-1.27-2.04-2.06-4.32-3.02-6.52-2.03,0-4.06,.04-6.08,.07-.99,2.22-1.93,4.46-2.9,6.68-7.2,.05-14.38,.07-21.57-.03,5.66-13.34,11.41-26.65,17.09-39.98Zm5.19,3.37c-4.39,10.09-8.85,20.15-13.1,30.3,2.76,.29,5.54,.38,8.31,.34,1.02-2.23,1.98-4.51,2.92-6.78,4.69-.08,9.52-.77,14.13,.28,1.3,1.99,2.09,4.25,3.06,6.41,4.88,.1,9.76,.05,14.64,.08,1.03-6.97-.06-14.04,.69-21.03,3.22,6.97,6.08,14.13,9.52,21.01,2.09,0,4.18,0,6.28-.03,3.33-6.95,6.14-14.14,9.59-21.03,.4,7-.12,14.03,.3,21.03,2.63,.03,5.26,.02,7.9,0,.34-10.19,.07-20.4,.14-30.59-4.1-.04-8.19-.03-12.29-.04-2.77,6.15-5.27,12.42-7.89,18.63-.68-.68-1.48-1.29-1.94-2.16-2.86-5.29-4.64-11.14-7.72-16.31-4.07-.41-8.18-.08-12.26-.07-.14,8.57,.37,17.17-.27,25.72-3.83-8.49-7.09-17.24-11.15-25.62-3.59-.45-7.24-.13-10.86-.14Zm70.55,.08c-.95,1.08-.34,2.8-.56,4.14,.07,7.76,.02,15.54,.02,23.3-.18,1.32,.12,3.39,1.97,3.04,9.93-.04,19.91,.26,29.83-.15,3.51-2.68,6.04-6.41,9.31-9.37,2.93,3.05,5.7,6.27,8.45,9.48,3.07,.07,6.14,.07,9.23,.07-.03-.39-.09-1.17-.12-1.56-4.14-4.58-8.33-9.11-12.52-13.65,4.42-5.24,9.46-9.96,13.66-15.4-3.26-.09-6.52-.07-9.77,0-3.12,3.08-5.61,6.82-9.31,9.27-2.64-3.12-5.1-6.48-8.3-9.05-2.61-.57-5.31-.22-7.95-.29-7.98,.14-15.98-.21-23.95,.14Z"/><path class="c" d="M134.17,48.2c4.34,3.56,7.68,8.15,11.4,12.32-3.51,3.52-6.74,7.31-10.11,10.96-.37,.05-1.11,.12-1.48,.17,.03-.69,.09-2.08,.12-2.77-5.46-.13-10.91-.03-16.36-.09-.02-1.71-.02-3.42,0-5.13,5.42-.07,10.83,.05,16.25-.1-.08-2.3-.15-4.6-.25-6.9-5.42-.06-10.84-.07-16.26,.03,0-1.53,0-3.04,0-4.57,5.49,0,11,.07,16.5-.05,.06-1.29,.12-2.58,.2-3.86Z"/><path class="c" d="M40.97,62.04c1.18-3.42,2.58-6.75,4.08-10.04,1.51,3.31,2.86,6.68,4.13,10.1-2.74,.02-5.47,0-8.21-.07Z"/></g></svg>