<?xml version="1.0" encoding="UTF-8"?><svg id="a" xmlns="http://www.w3.org/2000/svg" viewBox="0 0 200 120"><defs><style>.c{fill:#fff;}</style></defs><g id="b"><rect class="c" x=".5" y=".5" width="199" height="119" rx="7.5" ry="7.5"/><path d="M192,1c3.86,0,7,3.14,7,7V112c0,3.86-3.14,7-7,7H8c-3.86,0-7-3.14-7-7V8C1,4.14,4.14,1,8,1H192m0-1H8C3.58,0,0,3.58,0,8V112c0,4.42,3.58,8,8,8H192c4.42,0,8-3.58,8-8V8c0-4.42-3.58-8-8-8h0Z"/></g><g><path d="M48.73,42.64c-.42-5.64,4.19-10.51,9.64-11.19,.04,5.5-3.92,10.81-9.64,11.19Z"/><path d="M80.3,77.95V34.99c5.56,.02,11.13-.03,16.69,0,4.79-.02,9.65,2.59,11.8,6.96,3.28,6.16,1.83,14.96-4.27,18.83-5.21,3.46-11.74,2.28-17.63,2.49v14.67h-6.59Zm6.59-37.42v17.01c3.85-.19,7.83,.49,11.6-.53,6.58-2.02,7.05-12.85,.79-15.54-3.95-1.56-8.28-.76-12.39-.94Z"/><path d="M31.23,50.26c1.66-4.18,5.92-7.26,10.46-7.2,2.66,.17,5.01,1.62,7.64,1.98,3.37-.82,6.66-2.79,10.24-1.98,2.84,.38,5.14,2.23,7.09,4.21-3.24,2.57-5.82,6.57-4.88,10.86,.44,3.59,3.18,6.17,6.1,7.97-1.8,4.15-3.88,8.61-7.69,11.27-3.57,2.42-7.17-1.4-10.89-.94-3.45,.17-7.23,3.4-10.43,.64-3.89-3.36-6.44-8.12-7.86-13.01-1.28-4.48-1.68-9.44,.23-13.81Z"/><path d="M116.59,49.8c3.82-3.62,9.67-4.12,14.57-2.82,3.93,1,7.41,4.42,7.57,8.63,.14,7.44,0,14.9,.05,22.34h-6.18c0-1.72,0-3.44,.03-5.15-3.34,5.5-11.21,7.04-16.54,3.58-4.85-2.87-5.38-10.95-.53-14.07,5.02-3.16,11.25-2.44,16.9-2.93-.14-2.13,.25-4.74-1.6-6.27-3.56-3.01-9.98-1.71-11.48,2.95-1.97-.03-3.92-.03-5.87-.04,.52-2.27,1.21-4.66,3.05-6.23Zm4.54,15.36c-2.88,.93-3.33,5.37-.75,6.9,3.7,2.14,9.47,1.04,11.38-3.05,.8-1.6,.6-3.43,.71-5.15-3.77,.31-7.75-.09-11.34,1.29Z"/><path d="M141.43,46.7c2.31-.02,4.62-.02,6.93-.03,2.71,8.48,5.21,17.03,7.98,25.5,2.69-8.47,5.29-16.98,7.91-25.48,2.27,0,4.55,0,6.83,0-4.03,11.18-7.95,22.39-11.99,33.56-1.24,2.98-2.61,6.32-5.61,7.92-2.71,1.54-5.93,1.43-8.94,1.34,0-1.7,0-3.39,0-5.1,1.87-.12,3.99,.13,5.58-1.11,1.51-1.38,1.97-3.45,2.61-5.3-3.78-10.43-7.56-20.85-11.3-31.3Z"/></g></svg>