<?xml version="1.0" encoding="UTF-8"?><svg id="a" xmlns="http://www.w3.org/2000/svg" viewBox="0 0 201 121"><defs><style>.g{fill:#f79e1b;}.h{fill:#eb001b;}.i{fill:#ff5f00;}.j{fill:#fff;stroke:#b7b7b7;stroke-miterlimit:10;}</style></defs><rect id="b" class="j" x=".5" y=".5" width="200" height="120" rx="8" ry="8"/><g id="c"><rect id="d" class="i" x="86.99" y="35.52" width="27.01" height="49.95"/><path id="e" class="h" d="M88.71,60.5c0-10.15,4.63-19.15,11.75-24.98-5.23-4.24-11.83-6.8-19.04-6.8-17.06,0-30.87,14.21-30.87,31.77s13.81,31.77,30.87,31.77c7.2,0,13.81-2.56,19.04-6.8-7.12-5.74-11.75-14.83-11.75-24.98Z"/><path id="f" class="g" d="M150.45,60.5c0,17.56-13.81,31.77-30.87,31.77-7.2,0-13.81-2.56-19.04-6.8,7.2-5.82,11.75-14.83,11.75-24.98s-4.63-19.15-11.75-24.98c5.23-4.24,11.83-6.8,19.04-6.8,17.06,0,30.87,14.3,30.87,31.77Z"/></g></svg>