<?xml version="1.0" encoding="UTF-8"?><svg id="a" xmlns="http://www.w3.org/2000/svg" viewBox="0 0 200 120"><defs><style>.c{fill:#00aeef;}.d{fill:#253e8b;}.e{fill:#fff;stroke:#b7b7b7;stroke-miterlimit:10;}</style></defs><rect id="b" class="e" x=".5" y=".5" width="200" height="120" rx="8" ry="8"/><g><path class="d" d="M160.17,50.21c-.73,.98-1.79,1.46-3.16,1.46s-2.43-.49-3.17-1.46c-.74-.98-1.11-2.36-1.11-4.16s.37-3.18,1.11-4.15c.74-.97,1.8-1.45,3.17-1.45s2.43,.49,3.16,1.45c.73,.97,1.11,2.35,1.11,4.15s-.37,3.19-1.11,4.16Zm3.76-10.89c-1.52-1.9-3.81-2.85-6.9-2.85s-5.38,.95-6.9,2.85c-1.52,1.9-2.27,4.14-2.27,6.73s.76,4.88,2.27,6.76c1.51,1.87,3.81,2.8,6.9,2.8s5.39-.94,6.9-2.8c1.52-1.87,2.27-4.12,2.27-6.76s-.76-4.83-2.27-6.73"/><path class="d" d="M122.81,47.99c-.03,1.58-.48,2.66-1.35,3.25-.87,.6-1.81,.9-2.84,.9-.65,0-1.2-.18-1.65-.54-.45-.36-.68-.94-.68-1.75,0-.9,.37-1.57,1.11-2,.44-.25,1.16-.47,2.17-.64l1.07-.2c.53-.1,.95-.21,1.26-.33,.31-.11,.61-.26,.91-.45v1.75Zm2.39-10.26c-1.54-.78-3.29-1.17-5.27-1.17-3.04,0-5.19,.79-6.44,2.38-.79,1.02-1.23,2.31-1.33,3.88h4.54c.11-.69,.34-1.24,.67-1.65,.47-.55,1.27-.83,2.39-.83,1.01,0,1.77,.14,2.29,.42,.52,.28,.78,.79,.78,1.53,0,.61-.34,1.05-1.02,1.34-.38,.17-1,.3-1.88,.41l-1.61,.2c-1.83,.23-3.22,.62-4.16,1.16-1.72,.99-2.58,2.59-2.58,4.81,0,1.71,.53,3.03,1.6,3.96,1.07,.93,2.43,1.32,4.06,1.4,10.28,.46,10.16-5.42,10.26-6.64v-6.76c0-2.17-.77-3.64-2.31-4.43"/><path class="d" d="M101.77,40.58c1.18,0,2.04,.36,2.6,1.09,.38,.54,.62,1.14,.71,1.81h5.07c-.28-2.56-1.17-4.34-2.69-5.36-1.52-1.01-3.46-1.51-5.83-1.51-2.79,0-4.99,.86-6.57,2.57-1.59,1.71-2.38,4.11-2.38,7.19,0,2.73,.72,4.95,2.15,6.66,1.44,1.71,3.68,2.57,6.72,2.57s5.35-1.03,6.9-3.08c.97-1.27,1.52-2.62,1.63-4.05h-5.05c-.1,.94-.4,1.71-.89,2.31-.49,.59-1.31,.89-2.47,.89-1.63,0-2.75-.74-3.34-2.24-.32-.8-.49-1.85-.49-3.17s.16-2.48,.49-3.32c.62-1.57,1.76-2.36,3.43-2.36"/><path class="d" d="M91.32,36.62c-10.41,0-9.8,9.22-9.8,9.22v9.36h4.72v-8.78c0-1.44,.18-2.51,.54-3.2,.65-1.23,1.92-1.84,3.81-1.84,.14,0,.33,0,.56,.02,.23,0,.49,.03,.79,.07v-4.81c-.21-.01-.34-.02-.4-.03-.06,0-.13,0-.22,0"/><path class="d" d="M67.61,41.51c.67-.68,1.6-1.03,2.8-1.03,1.11,0,2.04,.32,2.78,.97,.75,.64,1.16,1.59,1.25,2.83h-8.08c.17-1.17,.59-2.09,1.25-2.78Zm6.35,8.8c-.2,.28-.41,.53-.65,.72-.67,.55-1.57,.72-2.64,.72-1.01,0-1.8-.15-2.52-.6-1.18-.72-1.84-1.95-1.91-3.75h13.08c.02-1.55-.03-2.74-.16-3.56-.22-1.41-.69-2.65-1.43-3.71-.81-1.21-1.85-2.09-3.1-2.66-1.25-.56-2.65-.84-4.22-.84-2.63,0-4.77,.83-6.42,2.49-1.65,1.66-2.48,4.04-2.48,7.15,0,3.32,.91,5.72,2.74,7.19,1.83,1.47,3.93,2.21,6.32,2.21,2.89,0,5.14-.87,6.75-2.62,.87-.92,1.41-1.83,1.64-2.73h-5.01"/><path class="d" d="M59.62,55.2h-4.32v-10.87c0-.99-.33-3.35-3.17-3.35-1.9,0-3.27,1.37-3.27,3.35v10.87h-4.32v-10.87c0-.99-.3-3.35-3.14-3.35-1.93,0-3.27,1.37-3.27,3.35v10.87h-4.32v-10.77c0-4.49,2.98-7.88,7.59-7.88,2.29,0,4.15,.96,5.37,2.51,1.28-1.54,3.17-2.51,5.37-2.51,4.71,0,7.49,3.26,7.49,7.88v10.77"/><path class="d" d="M140.77,50.24c-.69,.99-1.7,1.48-3.03,1.48s-2.32-.5-2.97-1.49c-.65-1-.98-2.44-.98-4.1,0-1.54,.32-2.82,.96-3.86,.64-1.04,1.65-1.56,3.02-1.56,.9,0,1.69,.28,2.37,.86,1.11,.94,1.66,2.64,1.66,4.83,0,1.57-.35,2.85-1.04,3.84Zm5.67-19.3s-4.76-.51-4.76,3.32v5.06c-.53-.85-1.21-1.51-2.06-1.98-.84-.48-1.81-.72-2.9-.72-2.36,0-4.24,.88-5.65,2.64-1.41,1.76-2.11,4.29-2.11,7.35,0,2.66,.72,4.83,2.15,6.53,1.43,1.69,4.24,2.44,6.74,2.44,8.7,0,8.6-7.46,8.6-7.46V30.94"/><path class="c" d="M76.23,72.41c0-1.78-.35-3.15-1.04-4.11-.69-.96-1.69-1.44-2.99-1.44s-2.22,.48-2.92,1.44c-.64,.87-.97,2.24-.97,4.11,0,1.74,.34,3.04,1.04,3.91,.69,.96,1.69,1.44,2.99,1.44,1.2,0,2.15-.48,2.85-1.44,.7-.96,1.04-2.26,1.04-3.91m-7.92,12.79c0,.64-.23,1.19-.7,1.64-.46,.46-1.02,.69-1.67,.69h-2.36v-16.42c0-3.19,1.07-5.19,2.85-6.54,1.17-.89,2.91-1.75,6.18-1.75,2.21,0,4.79,.86,6.19,2.56,1.57,1.91,2.22,4.05,2.22,6.83s-.69,5.21-2.08,6.99c-1.39,1.74-3.17,2.6-5.35,2.6-1.16,0-2.18-.21-3.05-.61-.93-.46-1.67-1.17-2.22-2.13v6.14"/><path class="c" d="M104.55,72.41c0,3.15,.91,4.9,2.73,5.24,1.82,.34,3.16-.09,4.02-1.27,.41-.5,.7-1.29,.89-2.36,.18-1.07,.19-2.14,.03-3.18-.16-1.05-.53-1.99-1.13-2.81-.59-.82-1.45-1.23-2.59-1.23-1.55,0-2.59,.57-3.14,1.71-.55,1.14-.82,2.44-.82,3.91m7.78,7.87v-1.16c-.82,1.28-1.92,2.07-3.31,2.39-1.39,.32-2.76,.21-4.12-.34-1.37-.55-2.54-1.56-3.52-3.04-.98-1.49-1.46-3.44-1.46-5.86,0-2.83,.65-5.12,1.94-6.88,1.3-1.76,3.38-2.56,6.24-2.64,2.82-.08,4.46,.56,6.07,1.78,1.76,1.33,2.8,3.38,2.8,6.58v9.66c0,3.07-2.14,8.77-8.87,8.29-4.17-.3-6.49-2.01-7.78-5.89h4.98c.36,.64,.92,1.13,1.67,1.47,.75,.35,1.5,.44,2.25,.28,.75-.16,1.43-.61,2.05-1.33,.61-.73,.96-1.83,1.06-3.29"/><path class="c" d="M93.48,74.31c-.03,1.58-.48,2.66-1.35,3.25-.87,.59-1.81,.89-2.84,.89-.65,0-1.2-.18-1.65-.54-.45-.36-.68-.94-.68-1.75,0-.9,.37-1.57,1.11-2,.44-.25,1.16-.47,2.16-.64l1.07-.2c.54-.1,.96-.21,1.26-.33,.31-.11,.61-.26,.91-.45v1.75Zm2.39-10.26c-1.54-.78-3.29-1.17-5.27-1.17-3.04,0-5.19,.79-6.44,2.38-.78,1.01-1.23,2.31-1.33,3.88h4.55c.11-.7,.33-1.25,.67-1.65,.47-.55,1.27-.82,2.39-.82,1.01,0,1.77,.14,2.29,.42,.52,.28,.78,.79,.78,1.53,0,.6-.34,1.05-1.02,1.34-.38,.17-1,.3-1.88,.41l-1.61,.2c-1.83,.23-3.22,.62-4.16,1.16-1.72,.99-2.58,2.59-2.58,4.81,0,1.71,.53,3.03,1.6,3.96,1.07,.93,2.43,1.32,4.06,1.4,10.27,.46,10.16-5.42,10.25-6.64v-6.76c0-2.17-.77-3.64-2.31-4.43"/><path class="c" d="M131.09,76.43c-.73,.98-1.79,1.46-3.16,1.46s-2.43-.49-3.17-1.46c-.74-.97-1.11-2.36-1.11-4.16s.37-3.18,1.11-4.15c.74-.97,1.8-1.45,3.17-1.45s2.43,.48,3.16,1.45,1.1,2.35,1.1,4.15-.37,3.18-1.1,4.16m3.76-10.89c-1.52-1.9-3.82-2.85-6.9-2.85s-5.38,.95-6.9,2.85c-1.52,1.9-2.27,4.14-2.27,6.73s.76,4.88,2.27,6.76c1.51,1.87,3.82,2.8,6.9,2.8s5.39-.94,6.9-2.8c1.51-1.87,2.27-4.12,2.27-6.76s-.75-4.83-2.27-6.73"/></g></svg>