<?xml version="1.0" encoding="UTF-8"?><svg id="a" xmlns="http://www.w3.org/2000/svg" viewBox="0 0 201 121"><defs><style>.c{fill:#00aeef;}.d,.e{fill:#fff;}.f{fill:#253e8b;}.e{stroke:#b7b7b7;stroke-miterlimit:10;}</style></defs><rect id="b" class="e" x=".5" y=".5" width="200" height="120" rx="8" ry="8"/><g><g><path class="f" d="M77.89,57.15c0-11.15-13.85-20.24-30.94-20.24s-30.94,9.09-30.94,20.24c0,.29,0,1.08,0,1.19,0,11.83,12.11,21.41,30.94,21.41s30.95-9.58,30.95-21.41v-1.19"/><path class="c" d="M76.7,57.14c0,10.51-13.32,19.03-29.75,19.03s-29.75-8.52-29.75-19.03,13.32-19.03,29.75-19.03,29.75,8.52,29.75,19.03"/><path class="d" d="M37.07,51.13s-.31,.34-.12,.58c.47,.6,1.92,.94,3.39,.61,.87-.2,1.99-1.08,3.08-1.95,1.17-.93,2.34-1.87,3.51-2.24,1.24-.4,2.04-.22,2.56-.07,.58,.17,1.25,.55,2.33,1.36,2.04,1.53,10.22,8.68,11.63,9.91,1.14-.52,6.2-2.69,13.08-4.21-.6-3.67-2.83-7.02-6.21-9.77-4.71,1.98-10.48,3.02-16.11,.26-.03-.01-3.08-1.46-6.09-1.38-4.47,.1-6.41,2.04-8.46,4.09l-2.6,2.8"/><path class="d" d="M63.13,60.13c-.1-.09-9.62-8.42-11.78-10.04-1.25-.94-1.94-1.18-2.67-1.27-.38-.05-.91,.02-1.27,.12-1,.27-2.32,1.15-3.48,2.08-1.21,.96-2.35,1.87-3.4,2.1-1.35,.3-3-.06-3.75-.56-.3-.21-.52-.44-.62-.68-.28-.64,.23-1.16,.32-1.24l2.63-2.85c.31-.3,.61-.61,.93-.91-.85,.11-1.63,.33-2.4,.54-.95,.27-1.87,.52-2.8,.52-.39,0-2.46-.34-2.85-.45-2.38-.65-4.47-1.28-7.59-2.74-3.74,2.78-6.24,6.26-6.96,10.1,.54,.14,1.4,.4,1.77,.48,8.46,1.88,11.09,3.82,11.57,4.22,.52-.58,1.26-.94,2.1-.94,.93,0,1.78,.47,2.29,1.2,.48-.38,1.15-.71,2.02-.71,.39,0,.8,.07,1.21,.21,.95,.33,1.45,.96,1.7,1.54,.32-.14,.71-.25,1.18-.25,.46,0,.93,.1,1.41,.31,1.56,.67,1.8,2.2,1.66,3.36,.11-.01,.22-.02,.34-.02,1.85,0,3.35,1.5,3.35,3.36,0,.57-.15,1.11-.4,1.58,.5,.28,1.79,.92,2.91,.78,.9-.11,1.24-.42,1.36-.59,.08-.12,.17-.26,.09-.36l-2.39-2.65s-.39-.37-.26-.52c.13-.15,.38,.06,.55,.21,1.22,1.02,2.7,2.55,2.7,2.55,.02,.02,.12,.21,.67,.31,.47,.08,1.31,.03,1.89-.44,.15-.12,.29-.27,.41-.42,0,0-.02,.02-.03,.02,.61-.78-.07-1.57-.07-1.57l-2.79-3.13s-.4-.37-.26-.52c.12-.13,.38,.07,.55,.21,.88,.74,2.13,1.99,3.32,3.16,.23,.17,1.28,.82,2.67-.09,.84-.55,1.01-1.23,.99-1.75-.06-.68-.59-1.16-.59-1.16l-3.81-3.83s-.4-.34-.26-.52c.12-.15,.38,.06,.55,.21,1.21,1.02,4.5,4.03,4.5,4.03,.05,.03,1.18,.84,2.58-.05,.5-.32,.82-.8,.85-1.37,.05-.97-.64-1.55-.64-1.55"/><path class="d" d="M44.66,64.98c-.59,0-1.24,.34-1.32,.29-.05-.03,.03-.27,.09-.41,.06-.14,.83-2.47-1.06-3.29-1.45-.62-2.34,.08-2.64,.4-.08,.08-.11,.08-.13-.03-.03-.42-.22-1.56-1.47-1.94-1.79-.55-2.94,.7-3.23,1.15-.13-1.02-.99-1.81-2.05-1.81-1.15,0-2.08,.93-2.08,2.08,0,1.15,.93,2.08,2.08,2.08,.56,0,1.06-.22,1.43-.58,.01,.01,.02,.03,.01,.07-.09,.51-.25,2.38,1.71,3.14,.78,.3,1.45,.08,2-.31,.16-.12,.19-.07,.17,.09-.07,.48,.02,1.51,1.46,2.09,1.1,.45,1.74-.01,2.17-.4,.18-.17,.24-.14,.24,.12,.05,1.39,1.21,2.49,2.61,2.49,1.44,0,2.61-1.17,2.61-2.61,0-1.44-1.17-2.6-2.61-2.61"/><path class="f" d="M44.66,70.01c-1.31,0-2.37-1.02-2.42-2.31,0-.11-.01-.41-.26-.41-.1,0-.19,.06-.3,.15-.29,.27-.65,.54-1.19,.54-.24,0-.51-.06-.78-.17-1.38-.56-1.4-1.51-1.35-1.89,.02-.1,.02-.21-.05-.29l-.09-.07h-.09c-.07,0-.14,.03-.24,.1-.4,.28-.78,.42-1.17,.42-.21,0-.43-.04-.65-.13-1.82-.71-1.67-2.42-1.58-2.94,.01-.11-.01-.19-.08-.24l-.13-.11-.12,.11c-.35,.34-.82,.53-1.3,.53-1.04,0-1.89-.85-1.89-1.89,0-1.04,.85-1.89,1.89-1.89,.94,0,1.74,.71,1.86,1.65l.06,.51,.28-.43c.03-.05,.79-1.2,2.2-1.2,.27,0,.54,.04,.82,.13,1.12,.34,1.31,1.35,1.34,1.78,.02,.25,.2,.26,.23,.26,.1,0,.17-.06,.22-.11,.21-.22,.67-.59,1.39-.59,.33,0,.68,.08,1.04,.23,1.78,.76,.97,3.02,.96,3.05-.15,.37-.16,.54-.02,.64l.07,.03h.05c.08,0,.18-.03,.34-.09,.24-.08,.61-.21,.95-.21h0c1.34,.02,2.43,1.1,2.43,2.43,0,1.34-1.09,2.42-2.43,2.42Zm18.83-10.89c-2.94-2.56-9.72-8.46-11.56-9.84-1.05-.79-1.77-1.21-2.39-1.39-.28-.09-.67-.18-1.18-.18-.47,0-.97,.08-1.49,.25-1.19,.38-2.37,1.32-3.52,2.23l-.06,.05c-1.07,.85-2.17,1.72-3,1.91-.36,.08-.74,.12-1.11,.12-.93,0-1.77-.27-2.09-.67-.05-.07-.02-.17,.1-.33l.02-.02,2.58-2.78c2.02-2.02,3.93-3.93,8.33-4.03,.07,0,.15,0,.22,0,2.74,0,5.47,1.23,5.78,1.37,2.57,1.25,5.22,1.89,7.88,1.89,2.78,0,5.64-.69,8.65-2.07-.34-.28-.69-.56-1.05-.83-2.64,1.15-5.16,1.73-7.59,1.73-2.48,0-4.96-.6-7.37-1.77-.13-.06-3.15-1.49-6.29-1.49-.08,0-.17,0-.25,0-3.69,.09-5.77,1.4-7.17,2.55-1.36,.03-2.54,.36-3.58,.65-.93,.26-1.74,.48-2.52,.48-.32,0-.91-.03-.96-.03-.9-.03-5.45-1.14-9.07-2.51-.37,.26-.72,.53-1.07,.81,3.78,1.55,8.38,2.75,9.83,2.84,.4,.03,.83,.07,1.26,.07,.96,0,1.92-.27,2.85-.53,.55-.15,1.15-.32,1.79-.44-.17,.17-.34,.34-.51,.5l-2.62,2.84c-.21,.21-.66,.77-.36,1.45,.12,.28,.36,.54,.69,.77,.62,.42,1.74,.71,2.78,.71,.39,0,.77-.04,1.11-.12,1.1-.25,2.25-1.17,3.48-2.14,.97-.77,2.36-1.76,3.42-2.04,.3-.08,.66-.13,.95-.13,.09,0,.17,0,.25,.02,.7,.09,1.38,.33,2.58,1.23,2.15,1.62,11.68,9.95,11.78,10.04,0,0,.61,.53,.57,1.4-.02,.49-.29,.92-.76,1.22-.41,.26-.83,.39-1.25,.39-.64,0-1.08-.3-1.11-.32-.03-.03-3.3-3.02-4.5-4.03-.19-.16-.38-.3-.57-.3-.1,0-.19,.04-.25,.12-.19,.23,.02,.56,.27,.77l3.81,3.83s.48,.45,.53,1.03c.03,.64-.27,1.17-.91,1.58-.45,.3-.91,.45-1.35,.45-.59,0-1-.27-1.09-.33l-.55-.54c-1-.98-2.03-2-2.79-2.63-.18-.15-.38-.29-.57-.29-.09,0-.18,.03-.24,.1-.09,.1-.15,.27,.07,.55,.09,.12,.19,.21,.19,.21l2.78,3.13s.57,.68,.06,1.33l-.1,.12c-.08,.09-.17,.18-.26,.25-.48,.39-1.11,.43-1.36,.43-.13,0-.26-.01-.38-.03-.28-.05-.46-.13-.55-.23l-.03-.03c-.15-.16-1.55-1.59-2.72-2.56-.15-.13-.34-.29-.54-.29-.1,0-.18,.04-.25,.11-.23,.25,.11,.63,.26,.77l2.37,2.62s-.03,.08-.09,.16c-.09,.12-.37,.41-1.23,.51-.1,.01-.21,.02-.32,.02-.89,0-1.84-.43-2.32-.69,.22-.47,.34-.99,.34-1.5,0-1.96-1.59-3.54-3.54-3.54-.04,0-.09,0-.13,0,.06-.89-.06-2.58-1.8-3.32-.5-.22-1-.33-1.48-.33-.38,0-.74,.06-1.08,.2-.36-.7-.96-1.21-1.73-1.47-.43-.15-.86-.22-1.27-.22-.72,0-1.39,.21-1.98,.63-.57-.71-1.43-1.12-2.33-1.12-.79,0-1.55,.32-2.11,.88-.74-.56-3.67-2.43-11.52-4.21-.38-.09-1.25-.34-1.78-.49-.09,.42-.16,.85-.2,1.29,0,0,1.45,.35,1.73,.41,8.01,1.78,10.66,3.63,11.11,3.98-.15,.36-.23,.76-.23,1.15,0,1.65,1.35,3,3,3.01,.19,0,.37-.02,.55-.05,.25,1.22,1.05,2.14,2.27,2.62,.36,.14,.72,.21,1.07,.21,.23,0,.46-.03,.68-.09,.22,.57,.73,1.28,1.86,1.74,.4,.16,.79,.24,1.18,.24,.32,0,.62-.06,.92-.16,.54,1.32,1.83,2.2,3.27,2.2,.95,0,1.87-.39,2.54-1.07,.57,.32,1.78,.89,3,.89,.16,0,.31-.01,.45-.03,1.21-.15,1.77-.63,2.03-.99,.05-.06,.09-.13,.13-.2,.29,.08,.6,.15,.96,.15,.66,0,1.3-.23,1.94-.69,.63-.45,1.08-1.11,1.14-1.66v-.02c.22,.04,.44,.07,.65,.07,.68,0,1.35-.21,1.99-.63,1.23-.81,1.45-1.86,1.43-2.56,.21,.05,.44,.07,.65,.07,.64,0,1.27-.19,1.86-.57,.77-.49,1.23-1.24,1.3-2.11,.05-.59-.1-1.19-.41-1.7,2.07-.89,6.8-2.62,12.36-3.87-.03-.43-.1-.86-.17-1.28-6.73,1.5-11.76,3.67-13.02,4.23"/></g><path class="f" d="M180.55,52.28c-.54,.72-1.32,1.08-2.33,1.08s-1.79-.36-2.34-1.08c-.55-.72-.82-1.74-.82-3.07s.27-2.35,.82-3.06c.54-.71,1.33-1.07,2.34-1.07s1.79,.36,2.33,1.07c.54,.72,.81,1.74,.81,3.06s-.27,2.35-.81,3.07Zm2.77-8.03c-1.12-1.4-2.81-2.1-5.09-2.1s-3.97,.7-5.08,2.1c-1.12,1.4-1.68,3.05-1.68,4.96s.56,3.6,1.68,4.98c1.12,1.38,2.81,2.07,5.08,2.07s3.97-.69,5.09-2.07c1.12-1.38,1.67-3.04,1.67-4.98s-.56-3.56-1.67-4.96"/><path class="f" d="M153.02,50.64c-.02,1.16-.36,1.96-.99,2.4-.64,.44-1.34,.66-2.09,.66-.48,0-.88-.13-1.22-.4-.33-.26-.5-.69-.5-1.29,0-.66,.27-1.15,.82-1.47,.33-.18,.85-.34,1.6-.47l.79-.15c.39-.07,.7-.15,.93-.24,.23-.08,.45-.2,.67-.33v1.29Zm1.76-7.56c-1.13-.57-2.43-.86-3.89-.86-2.24,0-3.83,.59-4.75,1.75-.58,.75-.9,1.7-.98,2.86h3.35c.08-.51,.25-.92,.49-1.22,.35-.41,.93-.61,1.76-.61,.74,0,1.3,.1,1.69,.31,.38,.21,.57,.58,.57,1.12,0,.45-.25,.77-.75,.99-.28,.12-.74,.22-1.39,.3l-1.19,.15c-1.35,.17-2.37,.45-3.07,.85-1.27,.73-1.9,1.91-1.9,3.54,0,1.26,.39,2.23,1.18,2.92,.79,.69,1.79,.97,3,1.03,7.58,.34,7.49-3.99,7.56-4.89v-4.98c0-1.6-.57-2.69-1.7-3.26"/><path class="f" d="M137.5,45.19c.87,0,1.5,.27,1.91,.8,.28,.4,.46,.84,.53,1.34h3.74c-.21-1.89-.87-3.2-1.98-3.95-1.12-.74-2.55-1.12-4.3-1.12-2.06,0-3.68,.63-4.84,1.89-1.17,1.26-1.76,3.03-1.76,5.3,0,2.01,.53,3.65,1.59,4.91,1.06,1.26,2.71,1.89,4.96,1.89s3.94-.76,5.09-2.27c.72-.94,1.12-1.93,1.2-2.99h-3.72c-.08,.69-.29,1.26-.65,1.7-.36,.44-.96,.65-1.82,.65-1.2,0-2.03-.55-2.46-1.65-.24-.59-.36-1.37-.36-2.33s.12-1.83,.36-2.45c.45-1.16,1.3-1.74,2.53-1.74"/><path class="f" d="M129.8,42.26c-7.68,0-7.22,6.8-7.22,6.8v6.9h3.48v-6.48c0-1.06,.13-1.85,.4-2.36,.48-.91,1.41-1.36,2.8-1.36,.1,0,.24,0,.41,.01,.17,0,.36,.02,.58,.05v-3.54c-.15-.01-.25-.01-.3-.02-.05,0-.1,0-.16,0"/><path class="f" d="M112.32,45.87c.49-.5,1.18-.76,2.06-.76,.82,0,1.5,.24,2.05,.71,.55,.47,.86,1.17,.92,2.09h-5.96c.12-.86,.43-1.54,.92-2.05Zm4.68,6.49c-.15,.21-.3,.39-.48,.53-.49,.41-1.16,.53-1.95,.53-.75,0-1.33-.11-1.85-.45-.87-.53-1.36-1.44-1.41-2.76h9.64c.01-1.14-.02-2.02-.12-2.63-.16-1.04-.51-1.95-1.05-2.74-.6-.89-1.37-1.54-2.29-1.96-.92-.41-1.96-.62-3.11-.62-1.94,0-3.52,.61-4.73,1.83-1.22,1.22-1.82,2.98-1.82,5.27,0,2.45,.67,4.21,2.02,5.3,1.35,1.08,2.9,1.63,4.66,1.63,2.13,0,3.79-.64,4.98-1.93,.64-.68,1.04-1.35,1.21-2.01h-3.69"/><path class="f" d="M106.43,55.96h-3.18v-8.01c0-.73-.24-2.47-2.34-2.47-1.4,0-2.41,1.01-2.41,2.47v8.01h-3.18v-8.01c0-.73-.22-2.47-2.32-2.47-1.42,0-2.41,1.01-2.41,2.47v8.01h-3.18v-7.94c0-3.31,2.19-5.81,5.6-5.81,1.69,0,3.06,.71,3.96,1.85,.94-1.14,2.34-1.85,3.96-1.85,3.47,0,5.52,2.4,5.52,5.81v7.94"/><path class="f" d="M166.26,52.31c-.51,.73-1.26,1.09-2.23,1.09s-1.71-.37-2.19-1.1c-.48-.73-.72-1.8-.72-3.02,0-1.13,.24-2.08,.71-2.85,.47-.76,1.21-1.15,2.23-1.15,.66,0,1.25,.21,1.75,.63,.82,.7,1.23,1.94,1.23,3.56,0,1.16-.26,2.1-.77,2.83Zm4.18-14.23s-3.51-.37-3.51,2.44v3.73c-.39-.62-.89-1.11-1.52-1.46-.62-.35-1.33-.53-2.14-.53-1.74,0-3.13,.65-4.17,1.94s-1.56,3.16-1.56,5.42c0,1.96,.53,3.56,1.58,4.82,1.06,1.25,3.13,1.8,4.97,1.8,6.41,0,6.34-5.5,6.34-5.5v-12.66"/><path class="c" d="M118.68,68.64c0-1.31-.26-2.32-.77-3.03-.51-.71-1.24-1.06-2.2-1.06s-1.64,.36-2.15,1.06c-.48,.64-.71,1.65-.71,3.03,0,1.28,.25,2.24,.77,2.88,.51,.71,1.25,1.06,2.2,1.06,.89,0,1.59-.35,2.1-1.06,.51-.71,.77-1.66,.77-2.88m-5.84,9.43c0,.47-.17,.88-.52,1.21-.34,.34-.75,.51-1.23,.51h-1.74v-12.11c0-2.35,.79-3.83,2.1-4.82,.86-.66,2.15-1.29,4.56-1.29,1.63,0,3.53,.63,4.56,1.89,1.15,1.41,1.63,2.98,1.63,5.04s-.51,3.84-1.53,5.16c-1.02,1.28-2.34,1.92-3.95,1.92-.85,0-1.6-.15-2.25-.45-.69-.34-1.23-.86-1.64-1.57v4.53"/><path class="c" d="M139.56,68.65c0,2.32,.67,3.61,2.01,3.86,1.34,.25,2.33-.06,2.97-.94,.3-.37,.52-.95,.65-1.74,.13-.79,.14-1.57,.02-2.35-.11-.78-.39-1.47-.83-2.07-.43-.6-1.07-.91-1.91-.91-1.14,0-1.91,.42-2.31,1.26-.4,.84-.6,1.8-.6,2.88m5.74,5.8v-.85c-.6,.94-1.42,1.53-2.44,1.77-1.02,.24-2.04,.15-3.04-.25-1.01-.4-1.87-1.15-2.59-2.24-.72-1.1-1.08-2.54-1.08-4.32,0-2.08,.48-3.78,1.43-5.07,.96-1.3,2.49-1.89,4.6-1.94,2.08-.06,3.29,.42,4.48,1.31,1.3,.98,2.06,2.49,2.06,4.85v7.12c0,2.27-1.58,6.46-6.54,6.11-3.07-.22-4.78-1.49-5.73-4.34h3.67c.27,.47,.68,.83,1.23,1.08,.55,.26,1.11,.32,1.66,.2,.55-.12,1.06-.45,1.51-.98,.45-.54,.71-1.35,.78-2.43"/><path class="c" d="M131.4,70.05c-.02,1.16-.36,1.96-.99,2.4-.64,.44-1.34,.66-2.09,.66-.48,0-.89-.13-1.22-.4-.33-.26-.5-.69-.5-1.29,0-.66,.27-1.15,.82-1.47,.33-.19,.85-.35,1.59-.47l.79-.15c.4-.07,.71-.15,.93-.24,.23-.08,.45-.19,.67-.33v1.29Zm1.76-7.56c-1.13-.57-2.43-.86-3.89-.86-2.24,0-3.83,.59-4.75,1.75-.58,.75-.9,1.7-.98,2.86h3.35c.08-.51,.25-.92,.49-1.22,.35-.41,.93-.61,1.76-.61,.75,0,1.31,.1,1.69,.31,.38,.21,.57,.58,.57,1.13,0,.45-.25,.77-.75,.99-.28,.12-.74,.22-1.39,.3l-1.19,.14c-1.35,.17-2.37,.46-3.07,.85-1.27,.73-1.9,1.91-1.9,3.54,0,1.26,.39,2.23,1.18,2.92,.79,.68,1.79,.98,3,1.03,7.57,.34,7.49-3.99,7.56-4.89v-4.98c0-1.6-.57-2.68-1.7-3.26"/><path class="c" d="M159.12,71.61c-.54,.72-1.32,1.08-2.33,1.08s-1.79-.36-2.34-1.08c-.55-.72-.82-1.74-.82-3.06s.27-2.35,.82-3.06c.54-.72,1.32-1.07,2.34-1.07s1.79,.36,2.33,1.07,.81,1.74,.81,3.06-.27,2.35-.81,3.06m2.77-8.02c-1.12-1.4-2.81-2.1-5.09-2.1s-3.97,.7-5.08,2.1c-1.12,1.4-1.68,3.05-1.68,4.96s.56,3.6,1.68,4.98c1.12,1.38,2.81,2.07,5.08,2.07s3.97-.69,5.09-2.07c1.12-1.38,1.67-3.04,1.67-4.98s-.56-3.56-1.67-4.96"/></g></svg>