<?xml version="1.0" encoding="UTF-8"?><svg id="a" xmlns="http://www.w3.org/2000/svg" viewBox="0 0 201 121"><defs><style>.f{fill:#1f264f;}.g{fill:#2790c3;}.h{fill:#27346a;}.i{fill:#fff;stroke:#b7b7b7;stroke-miterlimit:10;}</style></defs><rect id="b" class="i" x=".5" y=".5" width="200" height="120" rx="8" ry="8"/><g><path id="c" class="h" d="M93.82,38.66c.41-.19,.86-.3,1.34-.3h19.48c2.31,0,4.46,.15,6.42,.47,.56,.09,1.11,.19,1.64,.31,.53,.12,1.05,.25,1.55,.39,.25,.07,.5,.15,.74,.23,.97,.32,1.87,.7,2.69,1.14,.98-6.2,0-10.42-3.37-14.24-3.7-4.21-10.39-6.01-18.95-6.01h-24.84c-1.75,0-3.24,1.27-3.51,2.99l-10.34,65.42c-.21,1.29,.8,2.46,2.1,2.46h15.34l7.99-50.54c.16-1.04,.83-1.89,1.73-2.32Z"/><path id="d" class="g" d="M127.42,42.35c-3.27,16.77-14.48,22.58-28.8,22.58h-7.29c-1.75,0-3.23,1.27-3.5,2.99l-4.79,30.29c-.18,1.13,.7,2.15,1.84,2.15h12.93c1.53,0,2.83-1.11,3.07-2.62l.13-.66,2.44-15.4,.16-.85c.24-1.51,1.54-2.62,3.07-2.62h1.93c12.52,0,22.33-5.07,25.2-19.75,1.2-6.13,.58-11.25-2.59-14.85-.96-1.09-2.15-1.99-3.54-2.72-.08,.47-.16,.95-.25,1.45h0Z"/><path id="e" class="f" d="M124.25,39.53c-.5-.15-1.01-.28-1.55-.39-.53-.12-1.08-.22-1.64-.31-1.97-.32-4.12-.47-6.43-.47h-19.47c-.48,0-.94,.11-1.34,.3-.9,.43-1.57,1.28-1.73,2.32l-4.14,26.17-.12,.76c.27-1.72,1.75-2.99,3.5-2.99h7.29c14.32,0,25.53-5.8,28.8-22.58,.1-.5,.18-.98,.25-1.45-.83-.44-1.73-.81-2.69-1.13-.24-.08-.49-.16-.74-.23"/></g></svg>