<?xml version="1.0" encoding="utf-8"?>
<!-- Generator: Adobe Illustrator 26.2.1, SVG Export Plug-In . SVG Version: 6.00 Build 0)  -->
<svg version="1.1" id="a" xmlns="http://www.w3.org/2000/svg" xmlns:xlink="http://www.w3.org/1999/xlink" x="0px" y="0px"
	 viewBox="0 0 201 121" style="enable-background:new 0 0 201 121;" xml:space="preserve">
<style type="text/css">
	.st0{fill:#FFFFFF;stroke:#B7B7B7;stroke-miterlimit:10;}
	.st1{fill:#142983;}
</style>
<path id="b" class="st0" d="M8.5,0.5h184c4.4,0,8,3.6,8,8v104c0,4.4-3.6,8-8,8H8.5c-4.4,0-8-3.6-8-8V8.5C0.5,4.1,4.1,0.5,8.5,0.5z"
	/>
<g id="c" transform="translate(32.000000, 40.000000)">
	<path id="d" class="st1" d="M70.8,13.3c-0.1,5.6,5.3,8.7,9.3,10.5c4.2,1.9,5.6,3.1,5.5,4.8c0,2.6-3.3,3.7-6.4,3.8
		c-5.4,0.1-8.5-1.4-10.9-2.4l-1.9,8.5c2.5,1.1,7.1,2,11.9,2.1c11.2,0,18.5-5.2,18.6-13.2c0-10.2-15.1-10.8-14.9-15.3
		c0-1.4,1.4-2.9,4.5-3.2c1.5-0.2,5.7-0.3,10.5,1.7l1.9-8.2c-2.6-0.9-5.9-1.7-10-1.7C78.2,0.5,70.8,5.8,70.8,13.3 M116.8,1.2
		c-2.1,0-3.8,1.1-4.5,2.8l-16,35.8h11.2l2.2-5.8h13.7l1.3,5.8h9.9l-8.6-38.7L116.8,1.2 M118.3,11.7l3.2,14.5h-8.9L118.3,11.7
		 M57.2,1.2l-8.8,38.7H59l8.8-38.7H57.2 M41.4,1.2L30.3,27.5L25.8,5.1c-0.5-2.5-2.6-3.9-4.9-3.9H2.8L2.5,2.3c3.7,0.8,8,2,10.5,3.3
		c1.6,0.8,2,1.5,2.5,3.4l8.5,30.9h11.3L52.6,1.2H41.4"/>
</g>
</svg>
