<svg width="25" height="25" viewBox="0 0 25 25" fill="none" xmlns="http://www.w3.org/2000/svg">
<path d="M12.5 0C10.0273 6.42658e-07 7.61025 0.733341 5.55444 2.10726C3.49863 3.48117 1.89648 5.43394 0.950648 7.71854C0.00481854 10.0031 -0.242196 12.5169 0.24085 14.9419C0.723896 17.3669 1.9153 19.5942 3.66436 21.342C5.41342 23.0898 7.64154 24.2796 10.0669 24.7609C12.4923 25.2422 15.0059 24.9934 17.2898 24.0459C19.5737 23.0984 21.5253 21.4949 22.8977 19.4381C24.2702 17.3813 25.0018 14.9636 25 12.491C24.9976 9.17734 23.6796 6.00023 21.3356 3.65798C18.9917 1.31572 15.8136 -8.61237e-07 12.5 0V0ZM18.2498 18.0245C18.2 18.1145 18.1319 18.1931 18.05 18.2553C17.968 18.3175 17.874 18.3619 17.7739 18.3857C17.6738 18.4094 17.5698 18.412 17.4686 18.3933C17.3675 18.3745 17.2713 18.3349 17.1864 18.2769C14.2574 16.4744 10.5714 16.0869 6.19142 17.0872C6.09319 17.1115 5.99114 17.1162 5.8911 17.101C5.79107 17.0858 5.695 17.0511 5.60838 16.9988C5.43345 16.8932 5.30765 16.7224 5.25865 16.524C5.23439 16.4257 5.22971 16.3237 5.24489 16.2237C5.26007 16.1236 5.2948 16.0275 5.3471 15.9409C5.45274 15.766 5.62353 15.6402 5.82192 15.5912C10.5714 14.5278 14.69 14.9694 17.9344 16.9701C18.0283 17.0143 18.1119 17.0779 18.1796 17.1566C18.2474 17.2353 18.2978 17.3274 18.3275 17.4269C18.3573 17.5263 18.3658 17.631 18.3524 17.734C18.339 17.8369 18.304 17.9359 18.2498 18.0245ZM19.7549 14.5908C19.6902 14.699 19.6045 14.7932 19.5029 14.8678C19.4014 14.9424 19.2859 14.996 19.1633 15.0254C19.0408 15.0547 18.9136 15.0593 18.7892 15.0389C18.6648 15.0184 18.5458 14.9734 18.4391 14.9063C16.5612 13.863 14.4948 13.203 12.3598 12.9648C10.2249 12.7265 8.06383 12.9147 6.00216 13.5184C5.76315 13.5893 5.50588 13.5639 5.2853 13.4477C5.06471 13.3316 4.89829 13.1337 4.82156 12.8965C4.75165 12.661 4.77428 12.4077 4.88482 12.1883C4.99536 11.9689 5.18548 11.7999 5.41637 11.7159C7.75441 11.0501 10.2016 10.8562 12.6153 11.1455C15.029 11.4349 17.361 12.2017 19.4755 13.4012C19.6701 13.5287 19.8079 13.7266 19.8599 13.9533C19.912 14.1801 19.8744 14.4182 19.7549 14.6179V14.5908ZM19.836 11.1211C15.8796 8.74189 9.1925 8.49856 5.41637 9.67916C5.27316 9.7265 5.12204 9.74517 4.97162 9.73411C4.8212 9.72304 4.67443 9.68246 4.53969 9.61467C4.40496 9.54689 4.28489 9.45322 4.18636 9.33904C4.08782 9.22485 4.01273 9.09237 3.96539 8.94917C3.91805 8.80596 3.89938 8.65484 3.91045 8.50442C3.92151 8.354 3.9621 8.20723 4.02988 8.0725C4.09767 7.93776 4.19133 7.8177 4.30552 7.71916C4.4197 7.62062 4.55218 7.54554 4.69539 7.4982C9.12942 6.18241 16.4113 6.43475 21.0616 9.18349C21.3299 9.34509 21.5255 9.60389 21.6077 9.90604C21.69 10.2082 21.6525 10.5304 21.5032 10.8057C21.3083 11.0481 21.0334 11.213 20.7278 11.2708C20.4222 11.3286 20.106 11.2756 19.836 11.1211Z" fill="black"/>
</svg>
