<?xml version="1.0" encoding="utf-8"?>
<!-- Generator: Adobe Illustrator 26.2.1, SVG Export Plug-In . SVG Version: 6.00 Build 0)  -->
<svg version="1.1" id="Capa_1" xmlns="http://www.w3.org/2000/svg" xmlns:xlink="http://www.w3.org/1999/xlink" x="0px" y="0px"
	 viewBox="0 0 26 25" style="enable-background:new 0 0 26 25;" xml:space="preserve">
<style type="text/css">
	.st0{fill:#FFFFFF;}
</style>
<path class="st0" d="M5.2,2.4c1.5-1.1,3.2-1.8,5-2.2c1.8-0.3,3.7-0.3,5.5,0.2c1.8,0.5,3.4,1.3,4.9,2.5c1.4,1.2,2.6,2.7,3.3,4.3
	c0.8,1.7,1.2,3.5,1.2,5.3c0,1.8-0.4,3.7-1.2,5.3c-0.8,1.7-2,3.1-3.4,4.3c-1.4,1.2-3.1,2-4.9,2.4c-2.2,0.5-4.4,0.5-6.5-0.1
	c1.2-1.8,1.6-4,2.1-6.1c0.3,0.4,0.7,0.8,1.2,1.1c0.5,0.3,1,0.4,1.5,0.5c0.9,0.1,1.7-0.1,2.5-0.4c0.8-0.3,1.5-0.8,2.1-1.4
	c1.7-1.9,2.5-4.3,2.4-6.8c0-1.2-0.3-2.3-0.9-3.3c-0.6-1-1.4-1.9-2.4-2.5C15.9,4.5,14,4,12,4.3C9.8,4.4,7.7,5.4,6.1,7
	c-0.8,0.9-1.4,1.9-1.8,3.1C4,11.3,4,12.5,4.2,13.7c0.1,0.7,0.4,1.4,0.8,1.9c0.4,0.6,1,1,1.7,1.3c0.5,0,0.5-0.5,0.6-0.8
	c0.1-0.3,0.3-0.8,0-1.1c-1.3-1.6-1-4,0-5.7c0.4-0.7,1-1.3,1.7-1.8c0.7-0.5,1.5-0.8,2.3-0.9c0.9-0.2,1.7-0.2,2.6,0
	c0.9,0.2,1.6,0.6,2.3,1.1c0.5,0.5,0.9,1.1,1.2,1.8c0.3,0.7,0.4,1.4,0.3,2.1c0,1.6-0.4,3.2-1.2,4.6c-0.3,0.5-0.7,0.9-1.1,1.2
	c-0.5,0.3-1,0.5-1.6,0.5c-0.3,0-0.5,0-0.8-0.1c-0.2-0.1-0.5-0.2-0.7-0.4c-0.2-0.2-0.3-0.4-0.4-0.7c-0.1-0.2-0.1-0.5-0.1-0.8
	c0.2-1.7,1.1-3.2,1.1-4.9c0-0.4-0.1-0.7-0.3-1.1c-0.2-0.3-0.5-0.6-0.8-0.7c-0.4-0.1-0.8-0.1-1.2,0c-0.4,0.1-0.7,0.4-1,0.7
	c-0.4,0.5-0.6,1.2-0.7,1.8c-0.1,0.7,0,1.3,0.2,2c0.1,0.3,0.2,0.6,0.1,0.9c-0.4,1.8-0.8,3.6-1.3,5.4c-0.4,1.3-0.5,2.7-0.5,4
	c-2-0.9-3.8-2.3-5.1-4.1c-1.3-1.8-2.1-3.9-2.3-6.1c-0.2-2.2,0.1-4.4,1-6.4C2,5.4,3.4,3.7,5.2,2.4z"/>
</svg>
