<svg width="26" height="25" viewBox="0 0 26 25" fill="none" xmlns="http://www.w3.org/2000/svg">
<path fill-rule="evenodd" clip-rule="evenodd" d="M25.1551 11.7935C25.0091 8.63574 23.6592 5.65379 21.3827 3.46045C19.1062 1.26711 16.0761 0.0289919 12.9151 0.000502726C9.754 -0.0279864 6.70209 1.15532 4.38644 3.30727C2.0708 5.45922 0.667322 8.41636 0.464403 11.571C0.464403 11.7452 0.464403 11.929 0.464403 12.1031C0.458158 14.3372 1.06739 16.5298 2.22526 18.4403L0 25L6.84027 22.8231C8.71427 23.852 10.823 24.3774 12.9607 24.3481C15.0984 24.3187 17.1919 23.7356 19.037 22.6557C20.882 21.5757 22.4156 20.0359 23.4879 18.1864C24.5602 16.3369 25.1346 14.2409 25.1551 12.1031V11.7935ZM12.8001 22.4361C10.7718 22.4389 8.78714 21.8469 7.09182 20.7333L3.10569 21.9814L4.40215 18.1114C3.12829 16.3539 2.45022 14.2349 2.46714 12.0644C2.46506 11.7413 2.48121 11.4183 2.51551 11.0969C2.78737 8.52799 4.0064 6.15241 5.93484 4.43354C7.86328 2.71466 10.3628 1.77574 12.946 1.7999C15.5292 1.82407 18.0108 2.80958 19.9067 4.56424C21.8027 6.31889 22.977 8.71686 23.2008 11.2904C23.2152 11.5579 23.2152 11.826 23.2008 12.0935C23.1905 14.84 22.0903 17.47 20.1419 19.4058C18.1935 21.3415 15.5563 22.4245 12.8098 22.4168L12.8001 22.4361Z" fill="black"/>
<path fill-rule="evenodd" clip-rule="evenodd" d="M18.4794 14.5803C18.1698 14.4352 16.6798 13.6999 16.4089 13.6128C16.138 13.5257 15.9252 13.4677 15.722 13.7676C15.5188 14.0675 14.9383 14.7351 14.7545 14.9383C14.5707 15.1415 14.3965 15.1705 14.0966 15.0157C13.205 14.6614 12.3804 14.1576 11.6585 13.5257C11.0003 12.923 10.4361 12.2251 9.98469 11.4553C9.81054 11.1553 9.98469 10.9909 10.1201 10.8457C10.2556 10.7006 10.4201 10.4878 10.5749 10.3136L10.6813 10.1685C10.7538 10.0537 10.8185 9.9341 10.8748 9.81052C10.918 9.73022 10.9406 9.64046 10.9406 9.54929C10.9406 9.45811 10.918 9.36836 10.8748 9.28806C10.7974 9.13326 10.1879 7.65298 9.90729 7.05312C9.62671 6.45327 9.40418 6.5597 9.22036 6.5597C9.03653 6.5597 8.84303 6.5597 8.63985 6.5597C8.48728 6.56414 8.33725 6.59994 8.1991 6.66485C8.06095 6.72976 7.93763 6.82241 7.83682 6.93702C7.49938 7.25097 7.2306 7.6314 7.04744 8.05434C6.86427 8.47729 6.77068 8.93359 6.77257 9.39449C6.77994 9.74157 6.83196 10.0863 6.92737 10.42C7.16593 11.1707 7.53254 11.8745 8.01097 12.5002C8.16578 12.6937 10.1105 15.8381 13.1871 17.0378C16.2638 18.2375 16.2638 17.8408 16.825 17.7924C17.2469 17.7112 17.647 17.5416 17.9988 17.2948C18.3506 17.048 18.6463 16.7296 18.8664 16.3605C19.0647 15.9109 19.1253 15.4126 19.0405 14.9286C18.9825 14.8125 18.7793 14.7351 18.4794 14.5803Z" fill="black"/>
</svg>
