<svg width="29" height="25" viewBox="0 0 29 25" fill="none" xmlns="http://www.w3.org/2000/svg">
<path d="M24.6202 0.00519196C20.6238 -0.123261 17.9192 2.1318 16.5062 6.77038C17.1806 6.46997 17.9089 6.30973 18.6471 6.29939C20.1136 6.29939 20.788 7.12363 20.5846 8.77211C20.2566 10.3425 19.596 11.8245 18.6471 13.1181C17.4375 15.0235 16.5062 15.9762 15.9389 15.9762C15.1574 15.9762 14.451 14.5097 13.798 11.566C13.5839 10.7096 13.1985 8.5045 12.6419 4.97204C12.0639 1.66081 10.6723 0.126509 8.46719 0.369142C7.5252 0.454777 6.09795 1.31827 4.18543 2.95961C2.82597 4.21203 1.42369 5.45374 0 6.70616L1.35946 8.45098C2.04173 7.8897 2.80273 7.43166 3.61809 7.09151C4.6029 7.09151 5.53775 8.65436 6.42265 11.78L8.74551 20.3436C9.90158 23.4479 11.3288 25 13.0273 25C15.7391 25 19.0503 22.4523 22.961 17.357C26.7503 12.483 28.7057 8.64722 28.827 5.8498C28.9019 2.01762 27.5532 0.101532 24.6202 0.00519196Z" fill="black"/>
</svg>
