<?xml version="1.0" encoding="utf-8"?>
<!-- Generator: Adobe Illustrator 26.2.1, SVG Export Plug-In . SVG Version: 6.00 Build 0)  -->
<svg version="1.1" id="Capa_1" xmlns="http://www.w3.org/2000/svg" xmlns:xlink="http://www.w3.org/1999/xlink" x="0px" y="0px"
	 viewBox="0 0 25 25" style="enable-background:new 0 0 25 25;" xml:space="preserve">
<style type="text/css">
	.st0{fill:#FFFFFF;}
</style>
<path class="st0" d="M12.5,2.2c3.3,0,3.7,0,5.1,0.1c0.8,0,1.6,0.2,2.3,0.4c0.5,0.2,1,0.5,1.4,1c0.4,0.4,0.7,0.9,1,1.4
	c0.3,0.7,0.4,1.5,0.4,2.3c0.1,1.3,0.1,1.7,0.1,5c0,3.3,0,3.7-0.1,5.1c0,0.8-0.2,1.6-0.4,2.3c-0.2,0.5-0.5,1-0.9,1.4
	c-0.4,0.4-0.9,0.7-1.4,0.9c-0.7,0.3-1.5,0.4-2.3,0.4c-1.3,0.1-1.7,0.1-5.1,0.1c-3.3,0-3.7,0-5-0.1c-0.8,0-1.6-0.2-2.3-0.4
	c-0.5-0.2-1-0.5-1.4-1c-0.4-0.4-0.8-0.9-1-1.4c-0.3-0.7-0.4-1.5-0.4-2.3c-0.1-1.3-0.1-1.7-0.1-5.1c0-3.3,0-3.7,0.1-5
	c0-0.8,0.2-1.6,0.4-2.3c0.2-0.5,0.5-1,1-1.4c0.4-0.4,0.9-0.8,1.4-1c0.7-0.3,1.5-0.4,2.3-0.4C8.8,2.2,9.2,2.2,12.5,2.2L12.5,2.2z
	 M12.5,0C9.1,0,8.7,0,7.3,0.1c-1,0-2.1,0.2-3,0.6C3.5,1,2.7,1.5,2.1,2.1C1.5,2.7,1,3.5,0.7,4.3c-0.4,1-0.6,2-0.6,3
	C0,8.7,0,9.1,0,12.5c0,3.4,0,3.8,0.1,5.2c0,1,0.2,2.1,0.6,3c0.3,0.8,0.8,1.6,1.4,2.2c0.6,0.6,1.4,1.1,2.2,1.4c1,0.4,2,0.6,3,0.6
	C8.7,25,9.1,25,12.5,25c3.4,0,3.8,0,5.2-0.1c1,0,2.1-0.2,3-0.6c0.8-0.3,1.6-0.8,2.2-1.4c0.6-0.6,1.1-1.4,1.4-2.2c0.4-1,0.6-2,0.6-3
	c0.1-1.3,0.1-1.8,0.1-5.2c0-3.4,0-3.8-0.1-5.2c0-1-0.2-2.1-0.6-3c-0.3-0.8-0.8-1.6-1.4-2.2c-0.6-0.6-1.4-1.1-2.2-1.4
	c-1-0.4-2-0.6-3-0.6C16.3,0,15.9,0,12.5,0z"/>
<path class="st0" d="M12.5,6.1c-1.3,0-2.5,0.4-3.6,1.1c-1.1,0.7-1.9,1.7-2.4,2.9c-0.5,1.2-0.6,2.5-0.4,3.7C6.4,15,7.1,16.2,8,17.1
	s2,1.5,3.3,1.8c1.2,0.2,2.5,0.1,3.7-0.4s2.2-1.3,2.9-2.4c0.7-1.1,1.1-2.3,1.1-3.6c0-0.8-0.2-1.7-0.5-2.5C18.1,9.3,17.6,8.6,17,8
	c-0.6-0.6-1.3-1.1-2.1-1.4C14.2,6.2,13.3,6.1,12.5,6.1z M12.5,16.7c-0.8,0-1.6-0.2-2.3-0.7c-0.7-0.5-1.2-1.1-1.5-1.9
	c-0.3-0.8-0.4-1.6-0.2-2.4c0.2-0.8,0.6-1.6,1.1-2.1c0.6-0.6,1.3-1,2.1-1.1c0.8-0.2,1.6-0.1,2.4,0.2c0.8,0.3,1.4,0.9,1.9,1.5
	c0.5,0.7,0.7,1.5,0.7,2.3c0,0.5-0.1,1.1-0.3,1.6c-0.2,0.5-0.5,1-0.9,1.4c-0.4,0.4-0.8,0.7-1.4,0.9C13.6,16.6,13,16.7,12.5,16.7"/>
<path class="st0" d="M20.7,5.8c0,0.3-0.1,0.6-0.3,0.8c-0.2,0.2-0.4,0.4-0.7,0.6c-0.3,0.1-0.6,0.1-0.9,0.1c-0.3-0.1-0.6-0.2-0.8-0.4
	c-0.2-0.2-0.4-0.5-0.4-0.8c-0.1-0.3,0-0.6,0.1-0.9c0.1-0.3,0.3-0.5,0.6-0.7c0.2-0.2,0.5-0.3,0.8-0.3c0.4,0,0.8,0.2,1.1,0.4
	C20.5,5,20.7,5.4,20.7,5.8z"/>
</svg>
