<svg width="26" height="25" viewBox="0 0 26 25" fill="none" xmlns="http://www.w3.org/2000/svg">
<path d="M5.19317 2.37477C6.68762 1.29292 8.40301 0.555279 10.2162 0.214765C12.0295 -0.125749 13.8956 -0.0606898 15.6807 0.405274C17.4659 0.871238 19.1257 1.72655 20.5412 2.90985C21.9567 4.09315 23.0927 5.57508 23.8677 7.24933C24.6428 8.92357 25.0376 10.7486 25.0239 12.5935C25.0102 14.4384 24.5884 16.2574 23.7886 17.9199C22.9888 19.5825 21.8309 21.0474 20.3981 22.2096C18.9652 23.3718 17.2928 24.2024 15.501 24.6418C13.3505 25.1635 11.1011 25.1146 8.97537 24.4997C10.2183 22.6797 10.5557 20.4867 11.1062 18.4003C11.4228 18.8404 11.833 19.2049 12.3074 19.4674C12.7818 19.7299 13.3085 19.884 13.8496 19.9185C14.7056 19.9726 15.5633 19.842 16.3644 19.5357C17.1656 19.2293 17.8915 18.7543 18.493 18.1428C20.1693 16.2724 21.0374 13.8147 20.9079 11.3064C20.8817 10.1442 20.5669 9.00663 19.9919 7.99618C19.417 6.98572 18.5998 6.13404 17.6141 5.51772C15.9424 4.48588 13.9727 4.04505 12.0207 4.26587C9.78559 4.39018 7.67996 5.3542 6.1254 6.9649C5.28943 7.84441 4.68097 8.91482 4.35293 10.0831C4.0249 11.2513 3.98722 12.482 4.24318 13.6681C4.35478 14.3746 4.64726 15.0403 5.0922 15.6003C5.53714 16.1604 6.11941 16.5958 6.7824 16.8643C7.24408 16.8643 7.27072 16.3405 7.37726 16.0209C7.4838 15.7013 7.67024 15.2218 7.37726 14.8933C6.03662 13.2686 6.36512 10.8448 7.37726 9.14899C7.82681 8.43966 8.42315 7.8349 9.12611 7.37545C9.82907 6.916 10.6223 6.61253 11.4524 6.48547C12.3083 6.30679 13.1928 6.31752 14.044 6.51691C14.8952 6.71629 15.6925 7.0995 16.38 7.63966C16.8978 8.14007 17.298 8.7494 17.5513 9.42351C17.8047 10.0976 17.905 10.8196 17.8449 11.5373C17.8294 13.1399 17.4013 14.7116 16.6019 16.1008C16.3274 16.581 15.9362 16.9842 15.4643 17.2728C14.9925 17.5615 14.4554 17.7264 13.9029 17.7522C13.6368 17.7657 13.3709 17.7241 13.1216 17.6301C12.8724 17.5361 12.6452 17.3917 12.4543 17.2058C12.2635 17.02 12.1131 16.7967 12.0125 16.55C11.9119 16.3034 11.8633 16.0386 11.8697 15.7723C12.0828 14.1209 12.9529 12.6027 13.015 10.9158C13.0428 10.5414 12.9512 10.1679 12.7534 9.8489C12.5556 9.52987 12.2618 9.28173 11.9141 9.14011C11.5147 9.02827 11.0908 9.03962 10.6979 9.17269C10.3051 9.30576 9.96152 9.55434 9.71228 9.8859C9.32519 10.4264 9.0705 11.0502 8.96871 11.7072C8.86693 12.3641 8.92091 13.0358 9.1263 13.6681C9.19733 13.97 9.36602 14.2718 9.2506 14.5559C8.83627 16.3316 8.41307 18.1221 7.98099 19.9274C7.61144 21.2409 7.4438 22.6031 7.4838 23.967C5.46434 23.0822 3.71484 21.6789 2.41277 19.8997C1.11069 18.1204 0.302352 16.0284 0.0697594 13.8359C-0.162834 11.6434 0.188589 9.4284 1.08838 7.41555C1.98817 5.4027 3.40432 3.66364 5.19317 2.37477Z" fill="black"/>
</svg>
