<svg width="25" height="25" viewBox="0 0 25 25" fill="none" xmlns="http://www.w3.org/2000/svg">
<path d="M12.5 2.25C15.8365 2.25 16.2308 2.25 17.5577 2.32692C18.3492 2.33781 19.1329 2.48415 19.875 2.75962C20.4238 2.96404 20.9175 3.29321 21.3173 3.72115C21.7389 4.12247 22.0672 4.61158 22.2788 5.15385C22.5552 5.899 22.7016 6.68608 22.7115 7.48077C22.7692 8.79808 22.7788 9.19231 22.7788 12.5288C22.7788 15.8654 22.7788 16.2692 22.7115 17.5865C22.7007 18.378 22.5543 19.1618 22.2788 19.9038C22.0733 20.4451 21.7553 20.9366 21.346 21.346C20.9366 21.7553 20.4451 22.0733 19.9038 22.2788C19.1618 22.5543 18.378 22.7007 17.5865 22.7115C16.2596 22.7692 15.8654 22.7788 12.5288 22.7788C9.19231 22.7788 8.79808 22.7788 7.48077 22.7115C6.68608 22.7016 5.899 22.5552 5.15385 22.2788C4.61158 22.0672 4.12247 21.7389 3.72115 21.3173C3.29321 20.9175 2.96404 20.4238 2.75962 19.875C2.48415 19.1329 2.33781 18.3492 2.32692 17.5577C2.26923 16.2404 2.25 15.8365 2.25 12.5C2.25 9.16346 2.25 8.76923 2.32692 7.45192C2.3369 6.65723 2.48326 5.87016 2.75962 5.125C2.96409 4.57903 3.29337 4.08841 3.72115 3.69231C4.11725 3.26452 4.60787 2.93525 5.15385 2.73077C5.899 2.45441 6.68608 2.30805 7.48077 2.29808C8.79808 2.24038 9.19231 2.22115 12.5288 2.22115L12.5 2.25ZM12.5 0C9.10577 0 8.65385 0 7.34615 0.0769231C6.31104 0.0952813 5.28668 0.290397 4.31731 0.653846C3.48018 0.966041 2.7219 1.45843 2.09615 2.09615C1.46036 2.72348 0.968265 3.4813 0.653846 4.31731C0.290397 5.28668 0.0952813 6.31104 0.0769231 7.34615C0 8.65385 0 9.10577 0 12.5C0 15.8942 0 16.3462 0.0769231 17.6538C0.095503 18.6921 0.290595 19.7195 0.653846 20.6923C0.968673 21.5253 1.4608 22.2799 2.09615 22.9038C2.71924 23.5448 3.4783 24.0377 4.31731 24.3462C5.28727 24.7088 6.31094 24.907 7.34615 24.9327C8.65385 25 9.10577 25 12.5 25C15.8942 25 16.3462 25 17.6538 24.9327C18.6922 24.9068 19.719 24.7086 20.6923 24.3462C21.5271 24.035 22.2825 23.5424 22.9038 22.9038C23.5392 22.2799 24.0313 21.5253 24.3462 20.6923C24.7086 19.719 24.9068 18.6922 24.9327 17.6538C25 16.3462 25 15.8942 25 12.5C25 9.10577 25 8.65385 24.9327 7.34615C24.907 6.31094 24.7088 5.28727 24.3462 4.31731C24.0317 3.4813 23.5396 2.72348 22.9038 2.09615C22.2799 1.4608 21.5253 0.968673 20.6923 0.653846C19.7195 0.290595 18.6921 0.095503 17.6538 0.0769231C16.3462 0 15.8942 0 12.5 0Z" fill="black"/>
<path d="M12.5 6.08654C11.2292 6.08654 9.98701 6.46349 8.93053 7.16969C7.87406 7.8759 7.0508 8.87961 6.56494 10.0538C6.07907 11.2281 5.95244 12.52 6.20105 13.7662C6.44967 15.0125 7.06236 16.1569 7.96161 17.0548C8.86086 17.9527 10.0062 18.5637 11.2528 18.8104C12.4994 19.0572 13.7912 18.9286 14.9647 18.441C16.1382 17.9534 17.1407 17.1286 17.8453 16.0711C18.5499 15.0136 18.925 13.7708 18.9231 12.5C18.9243 11.6566 18.759 10.8213 18.4365 10.0419C18.1141 9.26263 17.6409 8.55469 17.044 7.95876C16.4472 7.36284 15.7386 6.89068 14.9588 6.56939C14.179 6.24809 13.3434 6.084 12.5 6.08654ZM12.5 16.6635C11.6742 16.6635 10.867 16.4185 10.1806 15.9595C9.4941 15.5005 8.95923 14.8482 8.64367 14.0851C8.3281 13.322 8.24602 12.4825 8.40782 11.6727C8.56962 10.863 8.96803 10.1194 9.5526 9.53617C10.1372 8.95294 10.8817 8.55625 11.6918 8.39632C12.5019 8.23639 13.3413 8.32041 14.1036 8.63773C14.866 8.95506 15.5171 9.49143 15.9745 10.1789C16.4319 10.8665 16.675 11.6742 16.6731 12.5C16.6743 13.0484 16.5673 13.5916 16.358 14.0985C16.1487 14.6053 15.8414 15.0659 15.4536 15.4536C15.0659 15.8414 14.6053 16.1487 14.0985 16.358C13.5916 16.5673 13.0484 16.6743 12.5 16.6731" fill="black"/>
<path d="M20.6731 5.82692C20.6731 6.12359 20.5851 6.4136 20.4203 6.66028C20.2555 6.90695 20.0212 7.09921 19.7471 7.21274C19.473 7.32627 19.1714 7.35598 18.8804 7.2981C18.5895 7.24022 18.3222 7.09736 18.1124 6.88758C17.9026 6.6778 17.7598 6.41053 17.7019 6.11956C17.644 5.82859 17.6737 5.52699 17.7873 5.2529C17.9008 4.97881 18.093 4.74454 18.3397 4.57972C18.5864 4.4149 18.8764 4.32692 19.1731 4.32692C19.5709 4.32692 19.9524 4.48496 20.2337 4.76626C20.515 5.04757 20.6731 5.4291 20.6731 5.82692Z" fill="black"/>
</svg>
