<svg width="26" height="25" viewBox="0 0 26 25" fill="none" xmlns="http://www.w3.org/2000/svg">
<path d="M0.0426832 1.78789C-0.0136954 1.56193 -0.0142305 1.32563 0.041124 1.09942C0.0964785 0.873196 0.206059 0.663848 0.360406 0.489445C0.514752 0.315043 0.709226 0.180825 0.927039 0.0983815C1.14485 0.0159376 1.37946 -0.0122558 1.6106 0.0162354H23.278C23.5137 -0.0171985 23.7539 0.00114377 23.9819 0.0699857C24.2098 0.138828 24.42 0.256516 24.5979 0.414858C24.7621 0.599996 24.8836 0.818899 24.954 1.05613C25.0245 1.29337 25.042 1.54316 25.0053 1.78789C25.0053 9.06055 25.0053 16.3421 25.0053 23.6236C24.9987 23.8148 24.9536 24.0028 24.8727 24.1763C24.7919 24.3497 24.6769 24.5052 24.5348 24.6333C24.3926 24.7614 24.2261 24.8596 24.0452 24.922C23.8643 24.9844 23.6726 25.0098 23.4817 24.9966H17.2809V15.3056H20.523C20.6914 14.0566 20.8508 12.7987 21.0103 11.5409H17.2721C17.2721 10.655 17.2721 9.67177 17.2721 8.74165C17.2696 8.43732 17.3683 8.1408 17.5527 7.89869C17.7371 7.65657 17.9967 7.48258 18.2908 7.40405C19.2283 7.29338 20.1733 7.25783 21.1166 7.29775V3.94046C19.8099 3.76037 18.4863 3.73955 17.1746 3.87845C16.428 3.97978 15.7207 4.27413 15.1226 4.73241C14.5245 5.1907 14.0563 5.79707 13.7642 6.49164C13.1175 8.09499 13.4541 9.86665 13.3744 11.5409H10.1411V15.3056H13.3921V24.9612C9.40589 24.9612 5.41966 24.9612 1.43343 24.9612C1.23782 24.9584 1.04491 24.9151 0.866844 24.8341C0.688775 24.7531 0.529405 24.6361 0.398766 24.4905C0.268126 24.3449 0.169047 24.1738 0.107764 23.988C0.0464813 23.8022 0.0243228 23.6057 0.0426832 23.411C0.0426832 16.2003 0.0426832 8.99263 0.0426832 1.78789Z" fill="black"/>
</svg>
