<?xml version="1.0" encoding="utf-8"?>
<!-- Generator: Adobe Illustrator 26.2.1, SVG Export Plug-In . SVG Version: 6.00 Build 0)  -->
<svg version="1.1" id="Capa_1" xmlns="http://www.w3.org/2000/svg" xmlns:xlink="http://www.w3.org/1999/xlink" x="0px" y="0px"
	 viewBox="0 0 26 25" style="enable-background:new 0 0 26 25;" xml:space="preserve">
<style type="text/css">
	.st0{fill:#FFFFFF;}
</style>
<path class="st0" d="M0,1.8C0,1.6,0,1.3,0,1.1c0.1-0.2,0.2-0.4,0.3-0.6c0.2-0.2,0.3-0.3,0.6-0.4C1.1,0,1.4,0,1.6,0h21.7
	c0.2,0,0.5,0,0.7,0.1c0.2,0.1,0.4,0.2,0.6,0.3c0.2,0.2,0.3,0.4,0.4,0.6C25,1.3,25,1.5,25,1.8c0,7.3,0,14.6,0,21.8
	c0,0.2-0.1,0.4-0.1,0.6c-0.1,0.2-0.2,0.3-0.3,0.5c-0.1,0.1-0.3,0.2-0.5,0.3C23.9,25,23.7,25,23.5,25h-6.2v-9.7h3.2
	c0.2-1.2,0.3-2.5,0.5-3.8h-3.7c0-0.9,0-1.9,0-2.8c0-0.3,0.1-0.6,0.3-0.8c0.2-0.2,0.4-0.4,0.7-0.5c0.9-0.1,1.9-0.1,2.8-0.1V3.9
	c-1.3-0.2-2.6-0.2-3.9-0.1c-0.7,0.1-1.5,0.4-2.1,0.9c-0.6,0.5-1.1,1.1-1.4,1.8c-0.6,1.6-0.3,3.4-0.4,5h-3.2v3.8h3.3V25
	c-4,0-8,0-12,0c-0.2,0-0.4,0-0.6-0.1c-0.2-0.1-0.3-0.2-0.5-0.3c-0.1-0.1-0.2-0.3-0.3-0.5C0,23.8,0,23.6,0,23.4C0,16.2,0,9,0,1.8z"/>
</svg>
