<svg width="22" height="25" viewBox="0 0 22 25" fill="none" xmlns="http://www.w3.org/2000/svg">
<path d="M21.6878 5.9847C21.4042 5.98501 21.1214 5.95821 20.843 5.90466C19.8292 5.75349 16.5301 4.01944 16.0054 1.1916C15.9223 0.846673 15.8658 0.495866 15.8364 0.142281C15.8364 0 15.8364 0 15.7031 0H11.7459C11.4791 0 11.5147 0 11.5147 0.231207V17.0559C11.5367 17.2599 11.5367 17.4656 11.5147 17.6695C11.3597 18.6209 10.8334 19.4719 10.0514 20.0355C9.26937 20.5991 8.29561 20.8292 7.34405 20.6752H7.20177C6.77112 20.5636 6.36837 20.3638 6.01905 20.0883C5.33433 19.5636 3.68031 17.0382 4.92527 15.1174C5.36003 14.4536 6.00038 13.9507 6.74824 13.6857C7.15164 13.5488 7.57634 13.4856 8.0021 13.4989C8.28405 13.5138 8.56395 13.5555 8.838 13.6234C8.94471 13.6234 8.98917 13.6234 8.99806 13.5256V13.4189C8.99806 12.414 8.99806 10.2176 8.9536 10.2087V9.31941C8.9536 9.24827 8.9536 9.23048 8.84689 9.22159C8.33228 9.17271 7.81419 9.17271 7.29958 9.22159C5.88263 9.32553 4.52025 9.81111 3.35698 10.6268C2.19371 11.4425 1.27296 12.5579 0.692407 13.8546C0.301064 14.6934 0.071762 15.5985 0.016572 16.5224C-0.0465537 17.5018 0.0710054 18.4845 0.363382 19.4214C0.839935 20.9539 1.77014 22.3058 3.03115 23.2985C3.15646 23.4083 3.29366 23.5038 3.44021 23.5831L3.64474 23.752C3.84768 23.9132 4.06848 24.0504 4.30279 24.1611C5.70615 24.8673 7.28891 25.1367 8.84689 24.9348C10.8449 24.7307 12.6866 23.7621 13.9868 22.2314C15.2363 20.7963 15.911 18.9497 15.8809 17.0471V8.68804C15.8809 8.6169 15.8809 8.52797 15.8809 8.4924C15.8809 8.45683 15.9965 8.54576 16.0499 8.58133C17.0812 9.28302 18.2326 9.78939 19.4468 10.0753C20.1493 10.2409 20.8682 10.3274 21.5899 10.3332C21.8211 10.3332 21.8478 10.3332 21.8478 10.102C21.8478 9.10599 21.7945 6.40265 21.7945 6.13587C21.7945 5.86909 21.8123 5.9847 21.6878 5.9847Z" fill="black"/>
</svg>
