<svg width="31" height="25" viewBox="0 0 31 25" fill="none" xmlns="http://www.w3.org/2000/svg">
<path d="M0 22.1645C2.88328 24.0202 6.24072 25.0048 9.66959 25C21.3865 25 28.0091 15.1093 27.6054 6.23752C28.8413 5.34317 29.9088 4.23668 30.7581 2.96947C29.6039 3.46594 28.383 3.7898 27.1344 3.93066C28.4437 3.14815 29.4266 1.91947 29.9027 0.470369C28.6824 1.20091 27.3464 1.71777 25.9522 1.99866C25.0009 0.982808 23.7408 0.309626 22.3675 0.0837444C20.9943 -0.142138 19.5849 0.0919325 18.3584 0.749576C17.1319 1.40722 16.157 2.4516 15.5852 3.7204C15.0134 4.9892 14.8767 6.41135 15.1964 7.76581C12.6785 7.64588 10.2143 6.99569 7.96491 5.85777C5.71557 4.71985 3.73183 3.11984 2.14346 1.16243C1.33405 2.54906 1.08232 4.19164 1.4393 5.75704C1.79629 7.32243 2.73528 8.69346 4.06584 9.59208C3.05405 9.56477 2.06421 9.29092 1.18227 8.79429C1.15984 10.2661 1.65307 11.6994 2.57648 12.8458C3.49989 13.9922 4.79528 14.7793 6.23813 15.0709C5.29741 15.3244 4.31132 15.3606 3.35456 15.1766C3.75715 16.4303 4.54154 17.5267 5.59801 18.3126C6.65448 19.0985 7.93018 19.5345 9.24667 19.5596C6.62642 21.6091 3.30475 22.5449 0 22.1645Z" fill="black"/>
</svg>
