<?xml version="1.0" encoding="utf-8"?>
<!-- Generator: Adobe Illustrator 26.2.1, SVG Export Plug-In . SVG Version: 6.00 Build 0)  -->
<svg version="1.1" id="Capa_1" xmlns="http://www.w3.org/2000/svg" xmlns:xlink="http://www.w3.org/1999/xlink" x="0px" y="0px"
	 viewBox="0 0 22 25" style="enable-background:new 0 0 22 25;" xml:space="preserve">
<style type="text/css">
	.st0{fill:#FFFFFF;}
</style>
<path class="st0" d="M21.7,6c-0.3,0-0.6,0-0.8-0.1c-1-0.2-4.3-1.9-4.8-4.7c-0.1-0.3-0.1-0.7-0.2-1c0-0.1,0-0.1-0.1-0.1h-4
	c-0.3,0-0.2,0-0.2,0.2v16.8c0,0.2,0,0.4,0,0.6c-0.2,1-0.7,1.8-1.5,2.4c-0.8,0.6-1.8,0.8-2.7,0.6H7.2c-0.4-0.1-0.8-0.3-1.2-0.6
	c-0.7-0.5-2.3-3.1-1.1-5C5.4,14.5,6,14,6.7,13.7c0.4-0.1,0.8-0.2,1.3-0.2c0.3,0,0.6,0.1,0.8,0.1c0.1,0,0.2,0,0.2-0.1v-0.1
	c0-1,0-3.2,0-3.2V9.3c0-0.1,0-0.1-0.1-0.1c-0.5,0-1,0-1.5,0c-1.4,0.1-2.8,0.6-3.9,1.4c-1.2,0.8-2.1,1.9-2.7,3.2
	c-0.4,0.8-0.6,1.7-0.7,2.7c-0.1,1,0.1,2,0.3,2.9C0.8,21,1.8,22.3,3,23.3c0.1,0.1,0.3,0.2,0.4,0.3l0.2,0.2c0.2,0.2,0.4,0.3,0.7,0.4
	c1.4,0.7,3,1,4.5,0.8c2-0.2,3.8-1.2,5.1-2.7c1.2-1.4,1.9-3.3,1.9-5.2V8.7c0-0.1,0-0.2,0-0.2S16,8.5,16,8.6c1,0.7,2.2,1.2,3.4,1.5
	c0.7,0.2,1.4,0.3,2.1,0.3c0.2,0,0.3,0,0.3-0.2c0-1-0.1-3.7-0.1-4S21.8,6,21.7,6z"/>
</svg>
