<svg width="36" height="25" viewBox="0 0 36 25" fill="none" xmlns="http://www.w3.org/2000/svg">
<path d="M34.742 3.908C34.544 3.15234 34.1501 2.46228 33.6002 1.90746C33.0503 1.35263 32.3638 0.952672 31.6099 0.747943C28.8426 0 17.7637 0 17.7637 0C17.7637 0 6.64735 0 3.87996 0.747943C3.12566 0.953834 2.43858 1.35402 1.88735 1.90854C1.33611 2.46306 0.940005 3.1525 0.738594 3.908C0 6.69409 0 12.5 0 12.5C0 12.5 0 18.3153 0.738594 21.1013C0.941433 21.8551 1.33817 22.5426 1.88932 23.0954C2.44046 23.6482 3.12678 24.047 3.87996 24.2521C6.68474 25 17.745 25 17.745 25C17.745 25 28.8426 25 31.6099 24.2521C32.3627 24.0481 33.0484 23.6496 33.5983 23.0965C34.1481 22.5434 34.5425 21.8553 34.742 21.1013C35.4899 18.2966 35.4899 12.5 35.4899 12.5C35.4899 12.5 35.5273 6.69409 34.742 3.908ZM14.1174 17.7637V7.227L23.3732 12.5L14.1174 17.7637Z" fill="black"/>
</svg>
