<svg width="23" height="23" viewBox="0 0 23 23" fill="none" xmlns="http://www.w3.org/2000/svg">
<path fill-rule="evenodd" clip-rule="evenodd" d="M9.75236 1.05237C4.94209 1.05237 1.05255 4.90678 1.05255 9.64923C1.05255 14.3917 4.94209 18.2461 9.75236 18.2461C14.5626 18.2461 18.4522 14.3917 18.4522 9.64923C18.4522 4.90678 14.5626 1.05237 9.75236 1.05237ZM0 9.64923C0 4.31464 4.37178 0 9.75236 0C15.1329 0 19.5047 4.31464 19.5047 9.64923C19.5047 12.1878 18.5147 14.4954 16.8971 16.217L23 22.2518L22.2599 23L16.1358 16.9443C14.4244 18.4114 12.1921 19.2985 9.75236 19.2985C4.37178 19.2985 0 14.9838 0 9.64923Z" fill="black"/>
</svg>
