<svg width="25" height="25" viewBox="0 0 25 25" fill="none" xmlns="http://www.w3.org/2000/svg">
<path d="M22.8063 11.8621H2.97693V24H22.8063V11.8621Z" stroke="black" stroke-miterlimit="10"/>
<path d="M16.0782 11.8621H9.70502V24H16.0782V11.8621Z" stroke="black" stroke-miterlimit="10"/>
<path d="M24.3984 7.98853H1.37988V11.8621H24.3984V7.98853Z" stroke="black" stroke-miterlimit="10"/>
<path d="M7.35756 1.94993C7.00772 2.98424 8.46794 4.75879 12.8942 7.63863C12.5849 3.73969 10.9675 1.14885 9.24367 1.00688C8.52878 0.946042 7.58064 1.29081 7.35756 1.94993Z" stroke="black" stroke-miterlimit="10"/>
<path d="M18.4257 1.94993C18.7755 2.98424 17.3153 4.75879 12.8891 7.63863C13.1984 3.73969 14.8158 1.14885 16.5396 1.00688C17.2545 0.946042 18.2026 1.29081 18.4257 1.94993Z" stroke="black" stroke-miterlimit="10"/>
</svg>
