<svg width="20" height="23" viewBox="0 0 20 23" fill="none" xmlns="http://www.w3.org/2000/svg">
<path fill-rule="evenodd" clip-rule="evenodd" d="M10 1.06977C6.93175 1.06977 4.44444 3.46452 4.44444 6.4186C4.44444 9.37269 6.93175 11.7674 10 11.7674C13.0682 11.7674 15.5556 9.37269 15.5556 6.4186C15.5556 3.46452 13.0682 1.06977 10 1.06977ZM3.33333 6.4186C3.33333 2.87371 6.3181 0 10 0C13.6819 0 16.6667 2.87371 16.6667 6.4186C16.6667 9.9635 13.6819 12.8372 10 12.8372C6.3181 12.8372 3.33333 9.9635 3.33333 6.4186ZM6.11111 15.5116C3.34969 15.5116 1.11111 17.6669 1.11111 20.3256V23H0V20.3256C0 17.0761 2.73604 14.4419 6.11111 14.4419H13.8889C17.264 14.4419 20 17.0761 20 20.3256V23H18.8889V20.3256C18.8889 17.6669 16.6503 15.5116 13.8889 15.5116H6.11111Z" fill="black"/>
</svg>
