<svg width="23" height="23" viewBox="0 0 23 23" fill="none" xmlns="http://www.w3.org/2000/svg">
<path d="M11.5299 14.2278H9.86031C9.8653 13.7636 9.90523 13.3743 9.9801 13.0598C10.055 12.7404 10.1798 12.4509 10.3545 12.1913C10.5341 11.9318 10.7712 11.6573 11.0657 11.3678C11.2953 11.1481 11.5025 10.941 11.6871 10.7463C11.8718 10.5467 12.0191 10.337 12.1289 10.1174C12.2387 9.89282 12.2936 9.63577 12.2936 9.34627C12.2936 9.03182 12.2412 8.76478 12.1364 8.54517C12.0315 8.32555 11.8768 8.15834 11.6722 8.04354C11.4725 7.92874 11.2229 7.87134 10.9235 7.87134C10.6739 7.87134 10.4393 7.92125 10.2197 8.02108C10.0001 8.11591 9.82288 8.26565 9.68811 8.4703C9.55334 8.66995 9.48097 8.93449 9.47099 9.26392H7.66663C7.67661 8.63501 7.82635 8.10593 8.11584 7.67668C8.40534 7.24742 8.79466 6.92548 9.28381 6.71086C9.77296 6.49623 10.3195 6.38892 10.9235 6.38892C11.5923 6.38892 12.1638 6.50372 12.638 6.73332C13.1122 6.95793 13.474 7.28735 13.7236 7.7216C13.9781 8.15085 14.1054 8.66995 14.1054 9.27889C14.1054 9.71813 14.0181 10.1174 13.8434 10.4768C13.6687 10.8312 13.4416 11.1631 13.1621 11.4726C12.8826 11.777 12.5806 12.0815 12.2561 12.386C11.9766 12.6405 11.787 12.9176 11.6871 13.217C11.5873 13.5115 11.5349 13.8484 11.5299 14.2278ZM9.71057 16.5637C9.71057 16.2942 9.80291 16.0671 9.98759 15.8824C10.1723 15.6927 10.4243 15.5979 10.7438 15.5979C11.0632 15.5979 11.3153 15.6927 11.5 15.8824C11.6846 16.0671 11.777 16.2942 11.777 16.5637C11.777 16.8333 11.6846 17.0629 11.5 17.2525C11.3153 17.4372 11.0632 17.5295 10.7438 17.5295C10.4243 17.5295 10.1723 17.4372 9.98759 17.2525C9.80291 17.0629 9.71057 16.8333 9.71057 16.5637Z" fill="black"/>
<path d="M22.5 11.5C22.5 17.5751 17.5751 22.5 11.5 22.5C5.42487 22.5 0.5 17.5751 0.5 11.5C0.5 5.42487 5.42487 0.5 11.5 0.5C17.5751 0.5 22.5 5.42487 22.5 11.5Z" stroke="black"/>
</svg>
